<?xml version="1.0" encoding="UTF-8"?>
<svg width="12px" height="12px" viewBox="0 0 12 12" version="1.1" xmlns="http://www.w3.org/2000/svg" xmlns:xlink="http://www.w3.org/1999/xlink">
    <!-- Generator: Sketch 48.2 (47327) - http://www.bohemiancoding.com/sketch -->
    <title>star</title>
    <desc>Created with Sketch.</desc>
    <defs></defs>
    <g id="__icons" stroke="none" stroke-width="1" fill="none" fill-rule="evenodd">
        <path d="M5.65099415,7.83615143 C5.86948717,7.72128286 6.13051283,7.72128286 6.34900585,7.83615143 L7.94282799,8.67407332 L7.63843505,6.89932628 C7.59670659,6.65603073 7.67736796,6.40778058 7.85413252,6.23547771 L9.14356173,4.97859488 L7.36161439,4.71966278 C7.11733177,4.68416643 6.90615758,4.5307394 6.79691107,4.3093818 L6,2.6946636 L5.20308893,4.3093818 C5.09384242,4.5307394 4.88266823,4.68416643 4.63838561,4.71966278 L2.85643827,4.97859488 L4.14586748,6.23547771 C4.32263204,6.40778058 4.40329341,6.65603073 4.36156495,6.89932628 L4.05717201,8.67407332 L5.65099415,7.83615143 Z M3.41007958,10.7089335 C2.85985905,10.9982016 2.21678472,10.5309807 2.3218675,9.91830118 L2.81649828,7.03438241 L0.72120865,4.9919798 C0.276070886,4.55807772 0.52170342,3.80209851 1.13686868,3.71270977 L4.03248773,3.29195169 L5.32744794,0.668075717 C5.60255821,0.110641428 6.39744179,0.110641428 6.67255206,0.668075717 L7.96751227,3.29195169 L10.8631313,3.71270977 C11.4782966,3.80209851 11.7239291,4.55807772 11.2787913,4.9919798 L9.18350172,7.03438241 L9.6781325,9.91830118 C9.78321528,10.5309807 9.14014095,10.9982016 8.58992042,10.7089335 L6,9.3473318 L3.41007958,10.7089335 Z" id="Star" fill="#000000" fill-rule="nonzero"></path>
    </g>
</svg>