<?xml version="1.0" encoding="UTF-8"?>
<svg width="12px" height="12px" viewBox="0 0 12 12" version="1.1" xmlns="http://www.w3.org/2000/svg" xmlns:xlink="http://www.w3.org/1999/xlink">
    <!-- Generator: Sketch 48.2 (47327) - http://www.bohemiancoding.com/sketch -->
    <title>close</title>
    <desc>Created with Sketch.</desc>
    <defs></defs>
    <g id="__icons" stroke="none" stroke-width="1" fill="none" fill-rule="evenodd">
        <g id="Group" transform="translate(1.250000, 1.000000)" fill="#000000" fill-rule="nonzero">
            <path d="M3.68933983,4.75 L0.219669914,1.28033009 C-0.0732233047,0.987436867 -0.0732233047,0.512563133 0.219669914,0.219669914 C0.512563133,-0.0732233047 0.987436867,-0.0732233047 1.28033009,0.219669914 L5.28033009,4.21966991 C5.5732233,4.51256313 5.5732233,4.98743687 5.28033009,5.28033009 L1.28033009,9.28033009 C0.987436867,9.5732233 0.512563133,9.5732233 0.219669914,9.28033009 C-0.0732233047,8.98743687 -0.0732233047,8.51256313 0.219669914,8.21966991 L3.68933983,4.75 Z" id="Path-2"></path>
            <path d="M7.68933983,4.75 L4.21966991,1.28033009 C3.9267767,0.987436867 3.9267767,0.512563133 4.21966991,0.219669914 C4.51256313,-0.0732233047 4.98743687,-0.0732233047 5.28033009,0.219669914 L9.28033009,4.21966991 C9.5732233,4.51256313 9.5732233,4.98743687 9.28033009,5.28033009 L5.28033009,9.28033009 C4.98743687,9.5732233 4.51256313,9.5732233 4.21966991,9.28033009 C3.9267767,8.98743687 3.9267767,8.51256313 4.21966991,8.21966991 L7.68933983,4.75 Z" id="Path-2" transform="translate(6.750000, 4.750000) scale(-1, 1) translate(-6.750000, -4.750000) "></path>
        </g>
    </g>
</svg>