<?xml version="1.0" encoding="UTF-8" standalone="no"?>
<svg width="500px" height="500px" viewBox="0 0 500 500" version="1.1" xmlns="http://www.w3.org/2000/svg" xmlns:xlink="http://www.w3.org/1999/xlink" xmlns:sketch="http://www.bohemiancoding.com/sketch/ns">
    <!-- Generator: Sketch 3.2.2 (9983) - http://www.bohemiancoding.com/sketch -->
    <title>article-typetesting</title>
    <desc>Created with Sketch.</desc>
    <defs></defs>
    <g id="Cover-Article" stroke="none" stroke-width="1" fill="none" fill-rule="evenodd" sketch:type="MSPage">
        <g id="article-typetesting" sketch:type="MSArtboardGroup" stroke="#F88D8D" fill="#FFFFFF">
            <g id="Group" sketch:type="MSLayerGroup" transform="translate(152.000000, 150.000000)">
                <path d="M71.6045845,122.689076 L97.7191977,49.2997199 L98.2808023,49.2997199 L123.553009,122.689076 L71.6045845,122.689076 Z M75.8166189,0 L0,200 L44.3667622,200 L60.0916905,155.462185 L135.065903,155.462185 L150.229226,200 L196,200 L121.025788,0 L75.8166189,0 Z" id="A-5" sketch:type="MSShapeGroup"></path>
                <path d="M76.9398281,0 L114.286533,0 L191.507163,200 L153.879656,200 L135.065903,147.058824 L55.0372493,147.058824 L36.2234957,200 L0,200 L76.9398281,0 Z M64.5845272,120.448179 L125.799427,120.448179 L95.7535817,34.4537815 L94.9111748,34.4537815 L64.5845272,120.448179 Z" id="A-4" sketch:type="MSShapeGroup"></path>
                <path d="M58.1260745,117.366947 L92.1031519,24.0896359 L92.6647564,24.0896359 L126.080229,117.366947 L58.1260745,117.366947 Z M78.0630372,0 L0,200 L27.2378223,200 L49.7020057,139.77591 L134.504298,139.77591 L156.406877,200 L185.891117,200 L107.547278,0 L78.0630372,0 Z" id="A-3" sketch:type="MSShapeGroup"></path>
                <path d="M50.2636103,121.568627 L90.4183381,19.047619 L129.169054,121.568627 L50.2636103,121.568627 Z M80.5902579,0 L0,200 L20.217765,200 L44.3667622,137.815126 L135.627507,137.815126 L160.057307,200 L180.555874,200 L101.931232,0 L80.5902579,0 Z" id="A-2" sketch:type="MSShapeGroup"></path>
                <path d="M80.5902579,0 L94.0687679,0 L173.255014,200 L160.057307,200 L134.7851,135.854342 L38.7507163,135.854342 L13.1977077,200 L0,200 L80.5902579,0 Z M130.853868,125.210084 L87.8911175,12.0448179 L87.3295129,12.0448179 L42.6819484,125.210084 L130.853868,125.210084 Z" id="A-6" sketch:type="MSShapeGroup"></path>
                <path d="M80.5902579,0 L94.0687679,0 L173.255014,200 L160.057307,200 L134.7851,135.854342 L38.7507163,135.854342 L13.1977077,200 L0,200 L80.5902579,0 Z M130.853868,125.210084 L87.8911175,12.0448179 L87.3295129,12.0448179 L42.6819484,125.210084 L130.853868,125.210084 Z" id="A" sketch:type="MSShapeGroup"></path>
                <path d="M32.8538682,134.173669 L135.065903,134.173669 L161.461318,200 L167.638968,200 L88.4527221,0 L81.1518625,0 L0,200 L6.17765043,200 L32.8538682,134.173669 Z M132.819484,128.571429 L35.1002865,128.571429 L84.52149,5.6022409 L85.0830946,5.6022409 L132.819484,128.571429 Z" id="A-7" sketch:type="MSShapeGroup"></path>
            </g>
        </g>
    </g>
</svg>