<?xml version="1.0" encoding="UTF-8" standalone="no"?>
<svg width="152px" height="44px" viewBox="0 0 152 44" version="1.1" xmlns="http://www.w3.org/2000/svg" xmlns:xlink="http://www.w3.org/1999/xlink" xmlns:sketch="http://www.bohemiancoding.com/sketch/ns">
    <!-- Generator: Sketch 3.4.4 (17249) - http://www.bohemiancoding.com/sketch -->
    <title>logo-dixie</title>
    <desc>Created with Sketch.</desc>
    <defs></defs>
    <g id="Page-1" stroke="none" stroke-width="1" fill="none" fill-rule="evenodd" sketch:type="MSPage">
        <g id="logo-dixie" sketch:type="MSLayerGroup" fill="#FF8D33">
            <path d="M126.102028,13.4625244 C125.479082,13.4625244 124.952678,14.0006394 124.952678,14.6375489 L124.952678,30.7793455 C124.952678,31.416255 125.479082,31.9542198 126.102028,31.9542198 C126.749898,31.9542198 127.277052,31.4270654 127.277052,30.7793455 L127.277052,14.6375489 C127.277052,13.9895287 126.749898,13.4625244 126.102028,13.4625244" id="Fill-1" sketch:type="MSShapeGroup"></path>
            <path d="M150.222159,29.6811947 L140.123646,29.6811947 L140.123646,23.704125 L148.941134,23.704125 C149.5327,23.704125 150.01376,23.2229145 150.01376,22.6314986 C150.01376,22.0501422 149.52249,21.5590223 148.941134,21.5590223 L140.123646,21.5590223 L140.123646,15.7356997 L150.094087,15.7356997 C150.685503,15.7356997 151.166563,15.2546394 151.166563,14.6632234 C151.166563,14.0718075 150.685503,13.590597 150.094087,13.590597 L138.948621,13.590597 C138.325675,13.590597 137.799272,14.1287119 137.799272,14.7656214 L137.799272,30.651273 C137.799272,31.2881825 138.325675,31.8262974 138.948621,31.8262974 L150.222159,31.8262974 C150.813726,31.8262974 151.294786,31.3450869 151.294786,30.753671 C151.294786,30.162255 150.813726,29.6811947 150.222159,29.6811947" id="Fill-2" sketch:type="MSShapeGroup"></path>
            <path d="M75.8055474,22.7083721 L75.8055474,22.7595711 C75.8055474,26.8197565 72.8116825,29.6555201 68.5252306,29.6555201 L64.4734533,29.6555201 L64.4734533,15.7613743 L68.5252306,15.7613743 C72.8116825,15.7613743 75.8055474,18.6180079 75.8055474,22.7083721 L75.8055474,22.7083721 Z M68.5252306,13.590597 L63.2984289,13.590597 C62.6753326,13.590597 62.149079,14.1287119 62.149079,14.7656214 L62.149079,30.651273 C62.149079,31.2881825 62.6753326,31.8262974 63.2984289,31.8262974 L68.5252306,31.8262974 C74.135199,31.8262974 78.2067953,27.9916279 78.2067953,22.7083721 L78.2067953,22.6571731 C78.2067953,17.4036458 74.135199,13.590597 68.5252306,13.590597 L68.5252306,13.590597 Z" id="Fill-3" sketch:type="MSShapeGroup"></path>
            <path d="M89.0841042,13.4625244 C88.461158,13.4625244 87.9347543,14.0006394 87.9347543,14.6375489 L87.9347543,30.7793455 C87.9347543,31.416255 88.461158,31.9542198 89.0841042,31.9542198 C89.7319741,31.9542198 90.2589784,31.4270654 90.2589784,30.7793455 L90.2589784,14.6375489 C90.2589784,13.9895287 89.7319741,13.4625244 89.0841042,13.4625244" id="Fill-4" sketch:type="MSShapeGroup"></path>
            <path d="M109.065225,22.5038764 L114.700868,15.3768563 C114.906415,15.1417313 115.019773,14.851954 115.019773,14.5606753 C115.019773,13.9551458 114.538563,13.4625244 113.947297,13.4625244 C113.444165,13.4625244 113.145529,13.7664152 112.854551,14.1105445 L107.644115,20.8991408 L102.353502,14.0290165 C102.114473,13.7422421 101.83956,13.4625244 101.341384,13.4625244 C100.718287,13.4625244 100.192034,13.9770668 100.192034,14.5861997 C100.192034,14.9478958 100.372056,15.2098966 100.557483,15.4481746 L106.171956,22.5294009 L100.254944,30.0397378 C100.048947,30.2750129 99.9357385,30.5647902 99.9357385,30.8562191 C99.9357385,31.4513886 100.415147,31.9542198 100.98254,31.9542198 C101.509995,31.9542198 101.799172,31.6633915 102.10081,31.3061997 L107.567692,24.1845848 L113.11445,31.3878779 C113.353478,31.674352 113.628392,31.9542198 114.126568,31.9542198 C114.760325,31.9542198 115.275918,31.4386264 115.275918,30.80487 C115.275918,30.5104382 115.161659,30.2506897 114.911069,29.9693204 L109.065225,22.5038764" id="Fill-5" sketch:type="MSShapeGroup"></path>
            <path d="M38.2232931,21.6358621 C38.2232931,9.73215517 28.7067759,0 16.587431,0 L3.60591379,0 C1.58874138,0 0,1.95136207 0,4.32717241 L0,39.6656207 C0,42.0423793 1.59025862,43.9927931 3.60591379,43.9927931 L16.587431,43.9927931 C17.3839828,43.9927931 18.0297586,43.3470172 18.0297586,42.5504655 C18.0297586,41.7539138 17.3839828,41.1081379 16.587431,41.1081379 L3.60591379,41.1081379 C3.32825862,41.1081379 2.88484483,40.5642069 2.88484483,39.6656207 L2.88484483,4.32717241 C2.88484483,3.42877586 3.32768966,2.88484483 3.60591379,2.88484483 L16.587431,2.88484483 C27.0988793,2.88484483 35.3384483,11.3110345 35.3384483,21.6358621 C35.3384483,22.4324138 35.9842241,23.0781897 36.7809655,23.0781897 C37.5775172,23.0781897 38.2232931,22.4324138 38.2232931,21.6358621" id="Fill-7" sketch:type="MSShapeGroup"></path>
            <path d="M24.4399138,43.5251034 C24.9948448,44.1304828 25.9425517,44.1509655 26.5230862,43.570431 L46.7166207,23.3768966 C47.2798966,22.8136207 47.2798966,21.900431 46.7166207,21.3371552 C46.1533448,20.7738793 45.2399655,20.7738793 44.6766897,21.3371552 L25.5484483,40.4653966 L18.633431,32.9214828 C18.095,32.3343103 17.182569,32.2944828 16.5953966,32.8329138 C16.0082241,33.3711552 15.9685862,34.2835862 16.5068276,34.8707586 L24.4399138,43.5251034 Z" id="Fill-8" sketch:type="MSShapeGroup"></path>
        </g>
    </g>
</svg>