<?xml version="1.0" encoding="utf-8"?>
<!-- Generator: Adobe Illustrator 16.0.0, SVG Export Plug-In . SVG Version: 6.00 Build 0)  -->
<!DOCTYPE svg PUBLIC "-//W3C//DTD SVG 1.1//EN" "http://www.w3.org/Graphics/SVG/1.1/DTD/svg11.dtd">
<svg version="1.1" id="Layer_1" xmlns:sketch="http://www.bohemiancoding.com/sketch/ns"
	 xmlns="http://www.w3.org/2000/svg" xmlns:xlink="http://www.w3.org/1999/xlink" x="0px" y="0px" width="26px" height="26px"
	 viewBox="0 0 26 26" enable-background="new 0 0 26 26" xml:space="preserve">
<title>done-plain-22</title>
<desc>Created with Sketch.</desc>
<g id="Ui" sketch:type="MSPage">
	<g id="_x2F_Guidelines_x2F_Symbols" transform="translate(-420.000000, -104.000000)" sketch:type="MSArtboardGroup">
		<g id="done-plain-22" transform="translate(420.000000, 104.000000)" sketch:type="MSLayerGroup">
			<g id="done-ring" sketch:type="MSShapeGroup">
				<path fill="#85DB9F" d="M13,1.5c6.341,0,11.5,5.159,11.5,11.5S19.341,24.5,13,24.5S1.5,19.341,1.5,13S6.659,1.5,13,1.5 M13,0
					C5.82,0,0,5.82,0,13c0,7.18,5.82,13,13,13c7.18,0,13-5.82,13-13C26,5.82,20.18,0,13,0L13,0z"/>
			</g>
			
				<path id="tick" sketch:type="MSShapeGroup" fill="none" stroke="#85DB9F" stroke-width="1.5" stroke-linecap="round" stroke-linejoin="round" d="
				M8.412,14.529l2.294,2.295l7.647-6.883"/>
		</g>
	</g>
</g>
</svg>
