<?xml version="1.0" encoding="UTF-8"?>
<svg width="90px" height="90px" viewBox="0 0 90 90" version="1.1" xmlns="http://www.w3.org/2000/svg" xmlns:xlink="http://www.w3.org/1999/xlink">
    <!-- Generator: Sketch 43.2 (39069) - http://www.bohemiancoding.com/sketch -->
    <title>founders-logo</title>
    <desc>Created with Sketch.</desc>
    <defs></defs>
    <g id="Site-images-size" stroke="none" stroke-width="1" fill="none" fill-rule="evenodd">
        <g id="founders-logo" fill="#000">
            <path d="M44.6052632,74.2105263 C28.2766535,74.2105263 15,60.9367597 15,44.6117005 C15,28.2866413 28.2766535,15 44.6052632,15 C60.9338729,15 74.2105263,28.2866413 74.2105263,44.5988258 C74.2105263,60.9110103 60.9338729,74.2105263 44.6052632,74.2105263 L44.6052632,74.2105263 Z M44.6052632,18.334535 C30.1052517,18.334535 18.3223827,30.1277166 18.3223827,44.6117005 C18.3223827,59.0956844 30.1181291,70.888866 44.6052632,70.888866 C59.0923972,70.888866 70.8881436,59.0956844 70.8881436,44.6117005 C70.8881436,30.1277166 59.0923972,18.334535 44.6052632,18.334535 L44.6052632,18.334535 L44.6052632,18.334535 Z" id="circle"></path>
            <polygon id="f" points="37.2039474 34.9835526 52.0065789 34.9835526 52.0065789 40.14375 42.8378289 40.14375 42.8378289 44.4379934 49.9371711 44.4379934 49.9371711 49.2976974 42.8378289 49.2976974 42.8378289 57.1875 37.2039474 57.1875"></polygon>
        </g>
    </g>
</svg>
