<?xml version="1.0" encoding="UTF-8"?>
<svg width="90px" height="90px" viewBox="0 0 90 90" version="1.1" xmlns="http://www.w3.org/2000/svg" xmlns:xlink="http://www.w3.org/1999/xlink">
    <!-- Generator: Sketch 50.2 (55047) - http://www.bohemiancoding.com/sketch -->
    <title>breather-logo</title>
    <desc>Created with Sketch.</desc>
    <defs></defs>
    <g stroke="none" stroke-width="1" fill="none" fill-rule="evenodd">
        <g transform="translate(15.000000, 15.000000)" fill="#000000" fill-rule="nonzero">
            <path d="M32.7686916,56.6755674 C32.4908211,56.6755674 32.1228304,56.5829439 31.9375834,56.3976969 C31.659713,56.2124499 31.5695928,55.8444593 31.5695928,55.5665888 L31.5695928,48.6448598 C31.5695928,48.1842457 31.9375834,47.7211282 32.4007009,47.5383845 L42.1862483,44.8623164 C43.0173565,44.6770694 43.5705941,43.7558411 43.2927236,42.924733 C43.1074766,42.0936248 42.1862483,41.5403872 41.3551402,41.8182577 L32.9564419,44.0337116 C32.5884513,44.1263351 32.2179573,44.0337116 32.0327103,43.8484646 C31.7548398,43.6632176 31.5720961,43.295227 31.5720961,42.924733 L31.5720961,40.1535381 C31.5720961,39.6929239 31.9400868,39.2298064 32.4032043,39.0470628 L45.4180574,35.447263 C46.2491656,35.1693925 46.7097797,34.3407877 46.5245327,33.5096796 C46.2466622,32.6785714 45.4180574,32.2179573 44.5869493,32.4032043 L33.0490654,35.6350134 C32.6810748,35.7276368 32.3105808,35.6350134 32.0327103,35.4497664 C31.7548398,35.2645194 31.5720961,34.8965287 31.5720961,34.5260347 L31.5720961,31.8499666 C31.5720961,31.3893525 31.9400868,30.926235 32.4032043,30.7434913 L42.1887517,28.1600467 C43.0198598,27.9747997 43.5730975,27.0535714 43.295227,26.2224633 C43.10998,25.3913551 42.1887517,24.8381175 41.3576435,25.115988 L32.9589453,27.3314419 C32.5909546,27.4240654 32.2204606,27.3314419 32.0352136,27.1461949 C31.7573431,26.9609479 31.5745995,26.5929573 31.5745995,26.2224633 L31.5745995,23.5388852 C31.5745995,23.078271 31.9425901,22.6151535 32.4057076,22.4324099 L38.6815754,20.7701936 C39.5126836,20.5849466 40.0659212,19.6637183 39.7880507,18.8326101 C39.6003004,17.9989987 38.6765688,17.445761 37.8454606,17.7236315 L32.9539386,19.0153538 C32.5859479,19.1079773 32.3080774,19.0153538 32.0302069,18.8301068 C31.7523364,18.6448598 31.5695928,18.2768692 31.5695928,17.9063752 L31.5695928,11.1698932 C31.5695928,10.2461615 30.8311081,9.6003004 30,9.6003004 C29.0762684,9.6003004 28.4304072,10.338785 28.4304072,11.1698932 L28.4304072,17.9088785 C28.4304072,18.2768692 28.2451602,18.5547397 27.9697931,18.8326101 C27.6919226,19.0178571 27.3239319,19.1104806 27.0460614,19.0178571 L22.1545394,17.7236315 C21.3234312,17.5383845 20.3996996,17.9989987 20.2144526,18.8301068 C20.0292056,19.661215 20.4923231,20.5849466 21.3234312,20.7676903 L27.5992991,22.4299065 C28.0599132,22.52253 28.4304072,22.9831442 28.4304072,23.5363818 L28.4304072,26.2124499 C28.4304072,26.5804406 28.2451602,26.8583111 27.9697931,27.1361816 C27.6919226,27.3214286 27.3239319,27.4140521 26.9534379,27.3214286 L18.5547397,25.2912216 C17.7236315,25.1059746 16.7998999,25.5690921 16.6171562,26.3976969 C16.4319092,27.2288051 16.8950267,28.1525367 17.7236315,28.3352804 L27.5992991,30.918725 C28.0599132,31.0113485 28.4304072,31.4719626 28.4304072,32.0252003 L28.4304072,34.7012684 C28.4304072,35.069259 28.2451602,35.3471295 27.9697931,35.625 C27.6919226,35.810247 27.3239319,35.9028705 26.9534379,35.810247 L15.3229306,32.5784379 C14.4918224,32.3005674 13.5680908,32.8563084 13.3853471,33.6849132 C13.1074766,34.5160214 13.6632176,35.439753 14.4918224,35.6224967 L27.5066756,39.2222964 C27.9672897,39.3149199 28.3377837,39.775534 28.3377837,40.3287717 L28.3377837,43.0974633 C28.3377837,43.4654539 28.1525367,43.7433244 27.8771696,44.0211949 C27.5992991,44.2064419 27.2313084,44.2990654 26.8608144,44.2064419 L18.5522363,41.805741 C17.7211282,41.620494 16.7973965,42.0836115 16.6146529,42.9122163 C16.4294059,43.7433244 16.8925234,44.6670561 17.7211282,44.8497997 L27.5967957,47.5258678 C28.0574099,47.6184913 28.4279039,48.0791055 28.4279039,48.6323431 L28.4279039,55.5540721 C28.4279039,55.8319426 28.3352804,56.1999332 28.0599132,56.3851802 C27.7820427,56.5704272 27.5066756,56.6630507 27.2288051,56.6630507 C13.7533378,55.2787049 3.22930574,43.8334446 3.22930574,29.9874833 C3.22930574,15.2177904 15.2303071,3.12666889 30.0901202,3.12666889 C44.8598131,3.12666889 56.9509346,15.1276702 56.9509346,29.9874833 C56.7681909,43.8459613 46.2441589,55.1985981 32.7686916,56.6755674 M30,0 C13.4754673,0 0,13.4754673 0,30 C0,46.5245327 13.4754673,60 30,60 C46.5245327,60 60,46.5245327 60,30 C60,13.3853471 46.5220294,0 30,0"></path>
        </g>
    </g>
</svg>