<?xml version="1.0" encoding="UTF-8"?>
<svg width="66px" height="66px" viewBox="0 0 66 66" version="1.1" xmlns="http://www.w3.org/2000/svg" xmlns:xlink="http://www.w3.org/1999/xlink">
    <!-- Generator: Sketch 39.1 (31720) - http://www.bohemiancoding.com/sketch -->
    <title>icon-checkmark</title>
    <desc>Created with Sketch.</desc>
    <defs></defs>
    <g id="master" stroke="none" stroke-width="1" fill="none" fill-rule="evenodd">
        <g id="desktop_push" transform="translate(-809.000000, -1404.000000)">
            <g id="main" transform="translate(-413.000000, -45.000000)">
                <g id="services" transform="translate(405.000000, 834.000000)">
                    <g id="f1" transform="translate(795.000000, 615.000000)">
                        <g id="icon/vat" transform="translate(22.000000, 0.000000)">
                            <g id="icon-checkmark" stroke-width="1" fill="#DCD3E7">
                                <circle id="background" cx="33" cy="33" r="33"></circle>
                            </g>
                            <path d="M50.8547493,30.7024807 C50.9505948,31.4548047 51,32.2216328 51,33 C51,42.9411255 42.9411255,51 33,51 C23.0588745,51 15,42.9411255 15,33 C15,23.0588745 23.0588745,15 33,15 C34.1136231,15 35.2036261,15.1011299 36.2613262,15.2947071 C36.2560261,15.3117644 36.249358,15.3333029 36.2385098,15.3683436 C36.1994138,15.4949084 36.1429156,15.6794165 36.0693714,15.9206521 C35.9308216,16.3751153 35.7318734,17.0305874 35.4774292,17.8707635 C35.0298369,19.3487157 34.4208292,21.3641397 33.6841064,23.8049359 C33.1150803,25.6901558 32.5058306,27.7099874 31.8968542,29.7298125 C31.5517932,30.87437 31.5517932,30.87437 31.3082696,31.6823029 C31.1256402,32.2882647 31.1256402,32.2882647 31.0850507,32.4229651 C30.6387104,33.9041912 31.9709996,35.3096338 33.4739479,34.943032 C34.0205522,34.8097033 34.0205522,34.8097033 36.206949,34.2763755 C38.9399447,33.6097024 40.3064457,33.2763561 42.2213135,32.8092153 C44.6813644,32.2090745 46.7312272,31.708956 48.2342128,31.342197 C49.395585,31.058785 49.395585,31.058785 50.2152303,30.8586986 C50.5481899,30.777398 50.5481899,30.777398 50.7702739,30.7231341 C50.8142957,30.7123724 50.8364706,30.7069515 50.8547493,30.7024807 Z" id="Combined-Shape" fill="#4F2385"></path>
                            <path d="M52.4910777,26.7323959 C50.9847419,20.5369767 46.2724791,15.5959776 40.2106005,13.7657098 C40.1932373,13.7657098 35.8636881,28.1347612 35.8636881,28.1347612 C35.3866863,29.7171889 36.3007121,30.6827226 37.9086319,30.2905014 C37.9086319,30.2905014 52.4957886,26.7323959 52.4910777,26.7323959 Z" id="Combined-Shape" fill="#4F2385"></path>
                        </g>
                    </g>
                </g>
            </g>
        </g>
    </g>
</svg>