<?xml version="1.0" encoding="UTF-8"?>
<svg width="33px" height="33px" viewBox="0 0 33 33" version="1.1" xmlns="http://www.w3.org/2000/svg" xmlns:xlink="http://www.w3.org/1999/xlink">
    <!-- Generator: Sketch 39.1 (31720) - http://www.bohemiancoding.com/sketch -->
    <title>icon/quote/tiny/color</title>
    <desc>Created with Sketch.</desc>
    <defs></defs>
    <g id="_overlays" stroke="none" stroke-width="1" fill="none" fill-rule="evenodd">
        <g id="changefordixie_1" transform="translate(-370.000000, -580.000000)" fill="#FFFFFF">
            <g id="change-for-dixie" transform="translate(260.000000, 200.000000)">
                <g id="1-empty">
                    <g id="contact" transform="translate(90.000000, 68.000000)">
                        <g id="rasmus-picture" transform="translate(0.000000, 131.000000)">
                            <g id="quote" transform="translate(20.000000, 181.000000)">
                                <g id="icon/quote/tiny">
                                    <path d="M0,16.5 C0,7.38730163 7.385298,0 16.5,0 C25.6126984,0 33,7.385298 33,16.5 C33,25.6126984 25.614702,33 16.5,33 C7.38730163,33 0,25.614702 0,16.5 Z M15.44,19.92 C14.96,19.44 14.6,18.6 14.6,17.56 C14.6,16 15.24,14.56 16.48,13.72 L15,12.28 C13.36,13.2 11.6,15.08 11.6,18.28 C11.6,19.56 12.08,20.8 12.76,21.56 L15.44,19.92 Z M21.24,19.92 C20.76,19.44 20.4,18.6 20.4,17.56 C20.4,16 21.04,14.56 22.28,13.72 L20.8,12.28 C19.16,13.2 17.4,15.08 17.4,18.28 C17.4,19.56 17.88,20.8 18.56,21.56 L21.24,19.92 Z" id="Combined-Shape"></path>
                                </g>
                            </g>
                        </g>
                    </g>
                </g>
            </g>
        </g>
    </g>
</svg>