<svg xmlns="http://www.w3.org/2000/svg" width="20" height="20" viewBox="0 0 20 20">
  <path fill="#FFFFFF" fill-rule="evenodd" d="M17.0431691,17.0431691 L14.0774487,17.0431691 L14.0774487,12.4006889 C14.0774487,11.2939608 14.0574476,9.87054836 12.5351408,9.87054836 C10.9928329,9.87054836 10.7572643,11.0772821 10.7572643,12.3217957 L10.7572643,17.0431691 L7.79376632,17.0431691 L7.79376632,7.49819434 L10.6361465,7.49819434 L10.6361465,8.80271126 L10.6772598,8.80271126 C11.0739486,8.05266959 12.0406689,7.26151453 13.4840824,7.26151453 C16.4886938,7.26151453 17.0431691,9.23717984 17.0431691,11.8084338 L17.0431691,17.0431691 L17.0431691,17.0431691 Z M4.44913606,6.1947886 C3.49574976,6.1947886 2.72681816,5.42363465 2.72681816,4.47358187 C2.72681816,3.52464026 3.49574976,2.7534863 4.44913606,2.7534863 C5.3969665,2.7534863 6.16812045,3.52464026 6.16812045,4.47358187 C6.16812045,5.42363465 5.3969665,6.1947886 4.44913606,6.1947886 L4.44913606,6.1947886 Z M2.9623868,17.0431691 L5.93255181,17.0431691 L5.93255181,7.49819434 L2.9623868,7.49819434 L2.9623868,17.0431691 Z M18.5199178,0 L1.47452636,0 C0.661147842,0 0,0.645591422 0,1.44230235 L0,18.5576976 C0,19.3544086 0.661147842,20.0011112 1.47452636,20.0011112 L18.5199178,20.0011112 C19.3355186,20.0011112 20,19.3544086 20,18.5576976 L20,1.44230235 C20,0.645591422 19.3355186,0 18.5199178,0 L18.5199178,0 Z"/>
</svg>
