<?xml version="1.0" encoding="UTF-8" standalone="no"?>
<svg width="500px" height="500px" viewBox="0 0 500 500" version="1.1" xmlns="http://www.w3.org/2000/svg" xmlns:xlink="http://www.w3.org/1999/xlink" xmlns:sketch="http://www.bohemiancoding.com/sketch/ns">
    <!-- Generator: Sketch 3.2.2 (9983) - http://www.bohemiancoding.com/sketch -->
    <title>article-joosnahban</title>
    <desc>Created with Sketch.</desc>
    <defs></defs>
    <g id="Cover-Article" stroke="none" stroke-width="1" fill="none" fill-rule="evenodd" sketch:type="MSPage">
        <g id="article-joosnahban" sketch:type="MSArtboardGroup" fill="#F7D491">
            <g id="Imported-Layers-+-Imported-Layers-+-Rectangle-172" sketch:type="MSLayerGroup" transform="translate(119.000000, 150.000000)">
                <path d="M65.7264348,151.45499 C65.7264348,164.945825 56.9602907,171.278615 46.8266265,171.278615 C36.6937724,171.278615 27.9345145,164.945825 27.9345145,151.45499 L27.9345145,47.9112016 C27.9345145,34.4211813 36.6937724,28.088391 46.8266265,28.088391 C56.9602907,28.088391 65.7264348,34.4211813 65.7264348,47.9112016 L65.7264348,151.45499 L65.7264348,151.45499 Z M46.8266265,0 C24.0964657,0 0,15.9694501 0,47.9112016 L0,151.45499 C0,183.398371 24.0964657,199.367006 46.8266265,199.367006 C69.5575974,199.367006 93.6532529,183.398371 93.6532529,151.45499 L93.6532529,47.9112016 C93.6532529,15.9694501 69.5575974,0 46.8266265,0 L46.8266265,0 Z" id="Imported-Layers" sketch:type="MSShapeGroup"></path>
                <path d="M139.540114,170.896538 L161.366156,57.3454175 L161.917053,57.3454175 L183.974796,170.896538 L139.540114,170.896538 L139.540114,170.896538 Z M217.838336,199.16945 L173.609026,0 L149.957328,0 L105.723562,199.16945 L217.838336,199.16945 L217.838336,199.16945 Z" id="Imported-Layers" sketch:type="MSShapeGroup"></path>
                <rect id="Rectangle-172" sketch:type="MSShapeGroup" x="218.333333" y="0" width="43.6666667" height="21.1678832"></rect>
            </g>
        </g>
    </g>
</svg>