<?xml version="1.0" encoding="UTF-8"?>
<svg width="66px" height="66px" viewBox="0 0 66 66" version="1.1" xmlns="http://www.w3.org/2000/svg" xmlns:xlink="http://www.w3.org/1999/xlink">
    <!-- Generator: Sketch 39.1 (31720) - http://www.bohemiancoding.com/sketch -->
    <title>icon-checkmark</title>
    <desc>Created with Sketch.</desc>
    <defs>
        <circle id="path-1" cx="33" cy="33" r="33"></circle>
        <path d="M27,30.9942021 C27,29.3405499 28.3504982,28 29.9964905,28 L52.0035095,28 C53.6584255,28 55,29.343312 55,30.9942021 L55,45.0057979 C55,46.6594501 53.6503296,48 51.9907455,48 L48,48 L48,51 C48,52.6568542 47.0492822,53.0492822 45.8846245,51.8846245 L42,48 L29.9994225,48 C28.3428872,48 27,46.656688 27,45.0057979 L27,30.9942021 Z M38.2928932,42.7071068 C38.6834175,43.0976311 39.3165825,43.0976311 39.7071068,42.7071068 L47.7071068,34.7071068 C48.0976311,34.3165825 48.0976311,33.6834175 47.7071068,33.2928932 C47.3165825,32.9023689 46.6834175,32.9023689 46.2928932,33.2928932 L39.0232079,40.6089943 L36.7071068,38.2928932 C36.3165825,37.9023689 35.6834175,37.9023689 35.2928932,38.2928932 C34.9023689,38.6834175 34.9023689,39.3165825 35.2928932,39.7071068 L38.2928932,42.7071068 Z" id="path-3"></path>
        <mask id="mask-4" maskContentUnits="userSpaceOnUse" maskUnits="objectBoundingBox" x="-2" y="-2" width="32" height="28.554151">
            <rect x="25" y="26" width="32" height="28.554151" fill="white"></rect>
            <use xlink:href="#path-3" fill="black"></use>
        </mask>
    </defs>
    <g id="master" stroke="none" stroke-width="1" fill="none" fill-rule="evenodd">
        <g id="desktop_push" transform="translate(-939.000000, -1404.000000)">
            <g id="main" transform="translate(-413.000000, -45.000000)">
                <g id="services" transform="translate(405.000000, 834.000000)">
                    <g id="f1" transform="translate(925.000000, 615.000000)">
                        <g id="icon/support" transform="translate(22.000000, 0.000000)">
                            <g id="icon-checkmark">
                                <mask id="mask-2" fill="white">
                                    <use xlink:href="#path-1"></use>
                                </mask>
                                <use id="background" fill="#DCD3E7" xlink:href="#path-1"></use>
                                <path d="M11,19.9942021 C11,18.3405499 12.3504982,17 13.9964905,17 L36.0035095,17 C37.6584255,17 39,18.343312 39,19.9942021 L39,34.0057979 C39,35.6594501 37.6556493,37 36.0005775,37 L24,37 L20.1153755,40.8846245 C18.9470859,42.0529141 18,41.6534829 18,40 L18,37 L14.0092545,37 C12.3472891,37 11,35.656688 11,34.0057979 L11,19.9942021 Z M14,32 C14,31.4477153 14.4446309,31 15.0008717,31 L28.9991283,31 C29.5518945,31 30,31.4438648 30,32 C30,32.5522847 29.5553691,33 28.9991283,33 L15.0008717,33 C14.4481055,33 14,32.5561352 14,32 Z M23,27 C23,26.4477153 23.4474894,26 23.9985023,26 L35.0014977,26 C35.5529553,26 36,26.4438648 36,27 C36,27.5522847 35.5525106,28 35.0014977,28 L23.9985023,28 C23.4470447,28 23,27.5561352 23,27 Z M14,27 C14,26.4477153 14.4509752,26 14.990778,26 L19.009222,26 C19.5564136,26 20,26.4438648 20,27 C20,27.5522847 19.5490248,28 19.009222,28 L14.990778,28 C14.4435864,28 14,27.5561352 14,27 Z M14,22 C14,21.4477153 14.455761,21 15.0024733,21 L24.9975267,21 C25.5511774,21 26,21.4438648 26,22 C26,22.5522847 25.544239,23 24.9975267,23 L15.0024733,23 C14.4488226,23 14,22.5561352 14,22 Z" id="Combined-Shape" fill="#4F2385" mask="url(#mask-2)"></path>
                                <g id="Combined-Shape" mask="url(#mask-2)">
                                    <use fill="#4F2385" fill-rule="evenodd" xlink:href="#path-3"></use>
                                    <use stroke="#DCD3E7" mask="url(#mask-4)" stroke-width="4" xlink:href="#path-3"></use>
                                </g>
                            </g>
                        </g>
                    </g>
                </g>
            </g>
        </g>
    </g>
</svg>