<?xml version="1.0" encoding="UTF-8"?>
<svg width="66px" height="66px" viewBox="0 0 66 66" version="1.1" xmlns="http://www.w3.org/2000/svg" xmlns:xlink="http://www.w3.org/1999/xlink">
    <!-- Generator: Sketch 39.1 (31720) - http://www.bohemiancoding.com/sketch -->
    <title>icon-checkmark</title>
    <desc>Created with Sketch.</desc>
    <defs>
        <path d="M41,12 L41,17.009222 C41,17.5564136 41.4509752,18 41.990778,18 L47,18 L41,12 Z" id="path-1"></path>
        <mask id="mask-2" maskContentUnits="userSpaceOnUse" maskUnits="objectBoundingBox" x="-2" y="-2" width="10" height="10">
            <rect x="39" y="10" width="10" height="10" fill="white"></rect>
            <use xlink:href="#path-1" fill="black"></use>
        </mask>
    </defs>
    <g id="master" stroke="none" stroke-width="1" fill="none" fill-rule="evenodd">
        <g id="desktop_push" transform="translate(-679.000000, -1404.000000)">
            <g id="main" transform="translate(-413.000000, -45.000000)">
                <g id="services" transform="translate(405.000000, 834.000000)">
                    <g id="f1" transform="translate(665.000000, 615.000000)">
                        <g id="icon/monthlyreport" transform="translate(22.000000, 0.000000)">
                            <g id="icon-checkmark" stroke-width="1" fill-rule="evenodd" fill="#DCD3E7">
                                <circle id="background" cx="33" cy="33" r="33"></circle>
                            </g>
                            <path d="M19,14.9982167 C19,13.3423474 20.3430813,12 22.0013869,12 L41,12 L47,18 L47,50.0007894 C47,51.6572077 45.6495018,53 44.0035095,53 L21.9964905,53 C20.3415745,53 19,51.6591666 19,50.0017833 L19,14.9982167 Z M22,21 C22,20.4477153 22.455761,20 23.0024733,20 L32.9975267,20 C33.5511774,20 34,20.4438648 34,21 C34,21.5522847 33.544239,22 32.9975267,22 L23.0024733,22 C22.4488226,22 22,21.5561352 22,21 Z M22,26 C22,25.4477153 22.4509752,25 22.990778,25 L27.009222,25 C27.5564136,25 28,25.4438648 28,26 C28,26.5522847 27.5490248,27 27.009222,27 L22.990778,27 C22.4435864,27 22,26.5561352 22,26 Z M22,31 C22,30.4477153 22.4474894,30 22.9985023,30 L34.0014977,30 C34.5529553,30 35,30.4438648 35,31 C35,31.5522847 34.5525106,32 34.0014977,32 L22.9985023,32 C22.4470447,32 22,31.5561352 22,31 Z M31,26 C31,25.4477153 31.4474894,25 31.9985023,25 L43.0014977,25 C43.5529553,25 44,25.4438648 44,26 C44,26.5522847 43.5525106,27 43.0014977,27 L31.9985023,27 C31.4470447,27 31,26.5561352 31,26 Z M38,31 C38,30.4477153 38.4509752,30 38.990778,30 L43.009222,30 C43.5564136,30 44,30.4438648 44,31 C44,31.5522847 43.5490248,32 43.009222,32 L38.990778,32 C38.4435864,32 38,31.5561352 38,31 Z M22,36.0024733 C22,35.4488226 22.4394583,35 23.0024617,35 L42.9975383,35 C43.5511826,35 44,35.455761 44,36.0024733 L44,45.9975267 C44,46.5511774 43.5605417,47 42.9975383,47 L23.0024617,47 C22.4488174,47 22,46.544239 22,45.9975267 L22,36.0024733 Z M28,41.990778 C28,41.4435864 28.4438648,41 29,41 C29.5522847,41 30,41.4509752 30,41.990778 L30,47 L28,47 L28,41.990778 Z M24,44.9989566 C24,44.4472481 24.4438648,44 25,44 C25.5522847,44 26,44.4426603 26,44.9989566 L26,47 L24,47 L24,44.9989566 Z M36,44.0093689 C36,43.4519098 36.4438648,43 37,43 C37.5522847,43 38,43.4433532 38,44.0093689 L38,47 L36,47 L36,44.0093689 Z M40,41.0029293 C40,40.4490268 40.4438648,40 41,40 C41.5522847,40 42,40.4378814 42,41.0029293 L42,47 L40,47 L40,41.0029293 Z M32,38.9975446 C32,38.446616 32.4438648,38 33,38 C33.5522847,38 34,38.4463114 34,38.9975446 L34,47 L32,47 L32,38.9975446 Z" id="icon" fill="#4F2385" fill-rule="evenodd"></path>
                            <g id="Rectangle-2">
                                <use fill="#4F2385" fill-rule="evenodd" xlink:href="#path-1"></use>
                                <use stroke="#DCD3E7" mask="url(#mask-2)" stroke-width="4" stroke-linecap="round" stroke-linejoin="round" xlink:href="#path-1"></use>
                            </g>
                        </g>
                    </g>
                </g>
            </g>
        </g>
    </g>
</svg>