<?xml version="1.0" encoding="UTF-8"?>
<svg width="66px" height="66px" viewBox="0 0 66 66" version="1.1" xmlns="http://www.w3.org/2000/svg" xmlns:xlink="http://www.w3.org/1999/xlink">
    <!-- Generator: Sketch 39.1 (31720) - http://www.bohemiancoding.com/sketch -->
    <title>icon-email-in</title>
    <desc>Created with Sketch.</desc>
    <defs>
        <circle id="path-1" cx="33" cy="33" r="33"></circle>
        <path d="M0,30 L18.2976085,38.7131469 C19.7900981,39.4238562 22.2198184,39.4191341 23.7023915,38.7131469 L42,30 L42,0 L0,0 L0,30 Z" id="path-3"></path>
        <rect id="path-5" x="0" y="0" width="22" height="20" rx="1"></rect>
        <mask id="mask-6" maskContentUnits="userSpaceOnUse" maskUnits="objectBoundingBox" x="-2" y="-2" width="26" height="24">
            <rect x="-2" y="-2" width="26" height="24" fill="white"></rect>
            <use xlink:href="#path-5" fill="black"></use>
        </mask>
        <path d="M0,30 L18.2976085,38.7131469 C19.7900981,39.4238562 22.2198184,39.4191341 23.7023915,38.7131469 L42,30 L42,0 L0,0 L0,30 Z" id="path-7"></path>
        <mask id="mask-8" maskContentUnits="userSpaceOnUse" maskUnits="objectBoundingBox" x="0" y="0" width="42" height="39.2444096" fill="white">
            <use xlink:href="#path-7"></use>
        </mask>
    </defs>
    <g id="_overlays" stroke="none" stroke-width="1" fill="none" fill-rule="evenodd">
        <g id="changefordixie_3_success" transform="translate(-832.000000, -551.000000)">
            <g id="3-success" transform="translate(260.000000, 200.000000)">
                <g id="contact" transform="translate(90.000000, 68.000000)">
                    <g id="icon-email-in" transform="translate(482.000000, 283.000000)">
                        <mask id="mask-2" fill="white">
                            <use xlink:href="#path-1"></use>
                        </mask>
                        <use id="background" fill="#DCD3E7" xlink:href="#path-1"></use>
                        <g id="icon" mask="url(#mask-2)">
                            <g transform="translate(12.000000, 13.000000)">
                                <path d="M0,29.8189408 L18.7725134,12.8342858 C20.0027203,11.7212415 21.9987461,11.7225682 23.2274866,12.8342858 L42,29.8189408 L42,49.8120925 C42,51.4727289 40.6501537,52.8189408 38.9963188,52.8189408 L3.00368123,52.8189408 C1.34479389,52.8189408 0,51.4829492 0,49.8120925 L0,29.8189408 Z" id="mail-opened" fill="#4F2385"></path>
                                <g id="letter-masked" stroke-width="1" fill="none">
                                    <mask id="mask-4" fill="white">
                                        <use xlink:href="#path-3"></use>
                                    </mask>
                                    <g id="mask"></g>
                                    <g id="letter" mask="url(#mask-4)">
                                        <g transform="translate(10.000000, 21.000000)">
                                            <g id="letter">
                                                <use fill="#4F2385" fill-rule="evenodd" xlink:href="#path-5"></use>
                                                <use stroke="#DCD3E7" mask="url(#mask-6)" stroke-width="4" xlink:href="#path-5"></use>
                                            </g>
                                            <g id="lines" stroke-width="1" fill-rule="evenodd" transform="translate(4.000000, 4.000000)">
                                                <rect id="Rectangle-9" fill="#DCD3E7" x="0" y="0" width="6" height="2" rx="1"></rect>
                                                <rect id="Rectangle-9" fill="#DCD3E7" x="0" y="4" width="10" height="2" rx="1"></rect>
                                                <rect id="Rectangle-9" fill="#DCD3E7" x="0" y="8" width="14" height="2" rx="1"></rect>
                                                <rect id="Rectangle-9" fill="#DCD3E7" x="0" y="12" width="6" height="2" rx="1"></rect>
                                                <rect id="Rectangle-9" fill="#DCD3E7" x="8" y="12" width="6" height="2" rx="1"></rect>
                                                <rect id="Rectangle-9" fill="#DCD3E7" x="12" y="4" width="2" height="2" rx="1"></rect>
                                            </g>
                                        </g>
                                    </g>
                                    <g id="mask" mask="url(#mask-4)" stroke-width="4" stroke="#DCD3E7">
                                        <use mask="url(#mask-8)" xlink:href="#path-7"></use>
                                    </g>
                                </g>
                            </g>
                        </g>
                    </g>
                </g>
            </g>
        </g>
    </g>
</svg>