<svg xmlns="http://www.w3.org/2000/svg" width="28" height="28" viewBox="0 0 28 28" xmlns:xlink="http://www.w3.org/1999/xlink">
  <defs>
    <rect id="b" width="375" height="62"/>
    <filter id="a" width="200%" height="200%" x="-50%" y="-50%" filterUnits="objectBoundingBox">
      <feOffset dy="2" in="SourceAlpha" result="shadowOffsetOuter1"/>
      <feGaussianBlur stdDeviation="1" in="shadowOffsetOuter1" result="shadowBlurOuter1"/>
      <feColorMatrix values="0 0 0 0 0 0 0 0 0 0 0 0 0 0 0 0 0 0 0.1 0" in="shadowBlurOuter1"/>
    </filter>
  </defs>
  <g fill="none" fill-rule="evenodd" transform="translate(-26 -17)">
    <use fill="black" filter="url(#a)" xlink:href="#b"/>
    <use fill="#FFFFFF" xlink:href="#b"/>
    <g fill="#4F2385" transform="translate(26 17)">
      <path d="M2.49021216,0.0227272789 C1.12553024,0.0227272727 0.0227272727,1.13982782 0.0227272727,2.51713365 L0.0227272727,23.8436014 C0.0227272727,25.2210503 1.1258561,26.3380077 2.49014703,26.3380077 L10.2516905,26.3380077 C10.7981753,26.3380077 11.2394816,25.8912524 11.2394816,25.3422292 C11.2394816,24.793206 10.7981753,24.3464506 10.2516905,24.3464506 L2.49014703,24.3464506 C2.21886881,24.3464506 1.99830954,24.1230452 1.99830954,23.8436014 L1.99830954,2.51713365 C1.99830954,2.23764522 2.2187315,2.0142844 2.49014703,2.0142844 C2.82411934,2.01410116 2.82411934,2.01410116 4.10160097,2.01355158 C5.16847508,2.01316402 5.65286002,2.0130214 6.37263529,2.01290495 C8.65226981,2.01253612 10.0882954,2.01331398 10.2367311,2.01558028 C16.255242,2.10747029 21.0925995,7.07872951 21.0925995,13.1803675 C21.0925995,13.7293907 21.5339059,14.1761461 22.0803907,14.1761461 C22.6268755,14.1761461 23.0681818,13.7293907 23.0681818,13.1803675 C23.0681818,5.99231588 17.3662132,0.132646938 10.2666498,0.0242515368 L2.49021216,0.0227272789 Z"/>
      <path d="M15.6725616,26.060263 L27.6736424,14.4193063 C28.065347,14.0393558 28.0799375,13.4109177 27.7064837,13.0127859 C27.329982,12.6114049 26.7022347,12.5963336 26.3073284,12.9793897 L14.7626492,24.1775368 L15.2430785,24.1832099 L10.9820155,19.8501266 C10.5962046,19.4577948 9.96827684,19.4577948 9.58246595,19.8501266 C9.19978408,20.2392766 9.19978408,20.8678845 9.58246595,21.2570344 L14.2896298,26.0437586 C14.6690135,26.4295547 15.2842328,26.4369389 15.6725616,26.060263 Z"/>
    </g>
  </g>
</svg>
