<?xml version="1.0" encoding="UTF-8"?>
<svg width="50px" height="47px" viewBox="0 0 50 47" version="1.1" xmlns="http://www.w3.org/2000/svg" xmlns:xlink="http://www.w3.org/1999/xlink">
    <!-- Generator: Sketch 41 (35326) - http://www.bohemiancoding.com/sketch -->
    <title>logotype</title>
    <desc>Created with Sketch.</desc>
    <defs></defs>
    <g id="master" stroke="none" stroke-width="1" fill="none" fill-rule="evenodd">
        <g id="desktop_push" transform="translate(-184.000000, -75.000000)" fill="#4F2385">
            <g id="header" transform="translate(184.000000, 75.000000)">
                <g id="logotype">
                    <path d="M18.1459833,0.0026930015 L3.8986029,0 C1.74327071,0 0,1.74834147 0,3.90651963 L0,42.5934804 C0,44.7526877 1.74463364,46.5 3.8986029,46.5 L18.1280992,46.5 C18.7830815,46.5 19.3140496,45.9681339 19.3140496,45.3120438 C19.3140496,44.6559537 18.7830815,44.1240876 18.1280992,44.1240876 L3.8986029,44.1240876 C3.05451565,44.1240876 2.37190083,43.4404247 2.37190083,42.5934804 L2.37190083,3.90651963 C2.37190083,3.05987605 3.05388075,2.37591241 3.8986029,2.37591241 C3.8986029,2.37591241 17.46228,2.36854677 18.1102151,2.37833525 C29.4833686,2.55015155 38.6280992,11.8413038 38.6280992,23.25 C38.6280992,23.9060901 39.1590673,24.4379562 39.8140496,24.4379562 C40.4690319,24.4379562 41,23.9060901 41,23.25 C41,10.5426253 30.8145392,0.194079183 18.1459833,0.0026930015 Z" id="D"></path>
                    <path d="M25.9766176,46.1510328 C26.4313408,46.6085743 27.1658741,46.6172978 27.6312034,46.1706831 L49.6331849,25.0535793 C50.1063936,24.5994022 50.1240896,23.84523 49.67271,23.3690885 C49.2213304,22.892947 48.4718035,22.8751414 47.9985949,23.3293185 L26.8333475,43.6431521 L19.0213988,35.782787 C18.5589759,35.3174981 17.8092402,35.3174981 17.3468172,35.782787 C16.8843943,36.248076 16.8843943,37.0024583 17.3468172,37.4677473 L25.9766176,46.1510328 Z" id="Path-149"></path>
                </g>
            </g>
        </g>
    </g>
</svg>