<svg xmlns="http://www.w3.org/2000/svg" width="20" height="20" viewBox="0 0 20 20">
  <path fill="#FFFFFF" fill-rule="evenodd" d="M6.28984907,18.2541591 C13.8375241,18.2541591 17.9647642,12.001298 17.9647642,6.57924539 C17.9647642,6.40164274 17.9611467,6.22484143 17.9531803,6.04883945 C18.7543875,5.4696342 19.4507947,4.74682696 20,3.9240184 C19.2647928,4.25082169 18.4735855,4.47082433 17.643577,4.57002566 C18.4907855,4.06201972 19.1411914,3.2584125 19.4479947,2.30040262 C18.6551868,2.77040723 17.7771783,3.11201119 16.8423691,3.29641249 C16.0935619,2.4988046 15.0275513,2 13.8471402,2 C11.5811178,2 9.74349938,3.83761842 9.74349938,6.10284011 C9.74349938,6.42484273 9.77949937,6.7380467 9.8499007,7.03844865 C6.43946783,6.86684734 3.4154369,5.23403156 1.39181784,2.75120723 C1.03941388,3.35761315 0.836212583,4.06201972 0.836212583,4.81362695 C0.836212583,6.23724143 1.56061915,7.49405393 2.66222967,8.22926116 C1.98902376,8.20846117 1.35661718,8.02365852 0.803811248,7.7160559 C0.803207221,7.733272 0.803207221,7.75005656 0.803207221,7.76845656 C0.803207221,9.75567562 2.2176217,11.4148921 4.09524012,11.7908953 C3.75043683,11.8848967 3.38763287,11.9352967 3.01322959,11.9352967 C2.74922696,11.9352967 2.49202433,11.9093128 2.24202237,11.8612967 C2.76442696,13.4917125 4.27924142,14.6781236 6.07525985,14.711325 C4.67084537,15.8121348 2.90162827,16.4677421 0.97880987,16.4677421 C0.64800591,16.4677421 0.321203291,16.4489259 0,16.4109407 C1.81601843,17.5749532 3.97243947,18.2541591 6.29006115,18.2541591"/>
</svg>
