<?xml version="1.0" encoding="UTF-8" standalone="no"?>
<svg width="500px" height="500px" viewBox="0 0 500 500" version="1.1" xmlns="http://www.w3.org/2000/svg" xmlns:xlink="http://www.w3.org/1999/xlink" xmlns:sketch="http://www.bohemiancoding.com/sketch/ns">
    <!-- Generator: Sketch 3.2.2 (9983) - http://www.bohemiancoding.com/sketch -->
    <title>article-fontmanager</title>
    <desc>Created with Sketch.</desc>
    <defs></defs>
    <g id="Cover-Article" stroke="none" stroke-width="1" fill="none" fill-rule="evenodd" sketch:type="MSPage">
        <g id="article-fontmanager" sketch:type="MSArtboardGroup">
            <g id="Rectangle-29-+-Oval-5-+-Rectangle-29-+-Oval-6-+-Rectangle-29-+-Oval-5-+-Rectangle-29-+-Oval-7" sketch:type="MSLayerGroup" transform="translate(221.000000, 150.000000)">
                <g id="Rectangle-29-+-Oval-5-+-Rectangle-29-+-Oval-6" sketch:type="MSShapeGroup">
                    <g id="Rectangle-29-+-Oval-5" fill-opacity="0.2" fill="#4C4C5F">
                        <path d="M25.6762137,33.4690012 L38.3050116,20.8402033 C39.0007704,20.1444445 40.131137,20.1447296 40.8285018,20.8420944 C41.5307285,21.5443211 41.5267133,22.6692643 40.8303929,23.3655847 L26.9370133,37.2589644 C26.2412544,37.9547232 25.1108878,37.9544381 24.413523,37.2570733 C24.1838828,37.0274331 24.0297683,36.7525876 23.9506921,36.4623091 C23.6616954,36.3847652 23.3889965,36.2325468 23.1624769,36.0060272 L18.088425,30.9319753 C17.4068211,30.2503713 17.4027048,29.1156033 18.1000696,28.4182385 C18.8022963,27.7160118 19.9228727,27.7156602 20.6138064,28.4065939 L25.6762137,33.4690012 L25.6762137,33.4690012 Z" id="Rectangle-29"></path>
                        <path d="M57.1428571,28.5714286 C57.1428571,12.7918643 44.3509929,0 28.5714286,0 C12.7918643,0 0,12.7918643 0,28.5714286 C0,44.3509929 12.7918643,57.1428571 28.5714286,57.1428571 C44.3509929,57.1428571 57.1428571,44.3509929 57.1428571,28.5714286 Z M3.57142857,28.5714286 C3.57142857,14.7643098 14.7643098,3.57142857 28.5714286,3.57142857 C42.3785473,3.57142857 53.5714286,14.7643098 53.5714286,28.5714286 C53.5714286,42.3785473 42.3785473,53.5714286 28.5714286,53.5714286 C14.7643098,53.5714286 3.57142857,42.3785473 3.57142857,28.5714286 Z" id="Oval-5"></path>
                    </g>
                    <g id="Rectangle-29-+-Oval-6" transform="translate(0.000000, 142.857143)">
                        <path d="M57.1428571,28.5714286 C57.1428571,12.7918643 44.3509929,0 28.5714286,0 C12.7918643,0 0,12.7918643 0,28.5714286 C0,44.3509929 12.7918643,57.1428571 28.5714286,57.1428571 C44.3509929,57.1428571 57.1428571,44.3509929 57.1428571,28.5714286 Z" id="Oval-5" fill="#F65C5C"></path>
                        <path d="M25.6762137,33.4690012 L38.3050116,20.8402033 C39.0007704,20.1444445 40.131137,20.1447296 40.8285018,20.8420944 C41.5307285,21.5443211 41.5267133,22.6692643 40.8303929,23.3655847 L26.9370133,37.2589644 C26.2412544,37.9547232 25.1108878,37.9544381 24.413523,37.2570733 C24.1838828,37.0274331 24.0297683,36.7525876 23.9506921,36.4623091 C23.6616954,36.3847652 23.3889965,36.2325468 23.1624769,36.0060272 L18.088425,30.9319753 C17.4068211,30.2503713 17.4027048,29.1156033 18.1000696,28.4182385 C18.8022963,27.7160118 19.9228727,27.7156602 20.6138064,28.4065939 L25.6762137,33.4690012 L25.6762137,33.4690012 Z" id="Rectangle-29" fill="#FFFFFF"></path>
                    </g>
                </g>
            </g>
        </g>
    </g>
</svg>