<?xml version="1.0" encoding="UTF-8" standalone="no"?>
<svg width="500px" height="500px" viewBox="0 0 500 500" version="1.1" xmlns="http://www.w3.org/2000/svg" xmlns:xlink="http://www.w3.org/1999/xlink" xmlns:sketch="http://www.bohemiancoding.com/sketch/ns">
    <!-- Generator: Sketch 3.2.2 (9983) - http://www.bohemiancoding.com/sketch -->
    <title>article-swail</title>
    <desc>Created with Sketch.</desc>
    <defs></defs>
    <g id="Cover-Article" stroke="none" stroke-width="1" fill="none" fill-rule="evenodd" sketch:type="MSPage">
        <g id="article-swail" sketch:type="MSArtboardGroup" fill="#061847">
            <g id="Group" sketch:type="MSLayerGroup" transform="translate(160.000000, 153.000000)">
                <path d="M18.3402087,45.9756815 C17.6692421,45.5824992 17.6077332,44.9968259 17.6012358,44.4241005 C17.5644171,41.271305 17.5405933,38.1185096 17.5332295,34.9657141 C17.53193,34.410684 17.4530947,33.6433096 18.2124262,33.5915183 C19.0952086,33.5306635 18.8937886,34.3580295 18.9011524,34.8707634 C18.9483669,38.0231273 18.9652602,41.1759227 18.9730571,44.3291497 C18.9743566,44.8915169 18.9882178,45.4884117 18.3402087,45.9756815" id="Fill-6" sketch:type="MSShapeGroup"></path>
                <path d="M155.171479,32.6579801 C155.595111,32.0809387 156.095845,32.0192207 156.597446,32.0671276 C159.806303,32.3744227 163.014728,32.6886233 166.22012,33.0304458 C166.842573,33.0969113 167.747879,33.1827986 167.708895,33.9324777 C167.661247,34.8452993 166.733849,34.5518153 166.149948,34.4888026 C162.943256,34.1418008 159.740896,33.757682 156.538969,33.3683841 C156.050796,33.3092557 155.534468,33.2380426 155.171479,32.6579801" id="Fill-4" sketch:type="MSShapeGroup"></path>
                <path d="M46.9617638,179.997326 C42.8263744,181.601993 38.8564526,182.186371 34.9900564,183.140626 C34.6266342,183.230398 34.2341902,183.10653 34.2398213,182.627461 C34.2454524,182.108253 34.6482922,181.919646 35.0909829,181.813474 C37.6721901,181.193705 40.2447341,180.532503 42.8393692,179.974451 C44.0266639,179.719379 45.2135254,178.845832 46.9617638,179.997326" id="Fill-8" sketch:type="MSShapeGroup"></path>
                <path d="M184.780208,148.773645 C184.858611,149.398594 184.853413,149.84443 184.2981,149.962687 C183.686476,150.093029 183.640128,149.593243 183.506281,149.187976 C182.431609,145.935913 181.343941,142.687736 180.275766,139.433516 C180.102501,138.906539 179.805353,138.238431 180.643953,138.034287 C181.357802,137.859923 181.358235,138.524147 181.512441,138.989837 C182.612237,142.307933 183.725894,145.621713 184.780208,148.773645" id="Fill-12" sketch:type="MSShapeGroup"></path>
                <path d="M20.5796518,61.323602 C20.6229679,61.9524347 20.5961119,62.4401361 20.0446978,62.488043 C19.5500278,62.5312025 19.2567777,62.0823445 19.1965683,61.6693089 C18.6707107,58.0715398 18.1712759,54.4698865 17.7017292,50.8643487 C17.650183,50.4681453 17.7693023,49.9213155 18.3272139,49.9286526 C18.7053635,49.9338317 18.8764622,50.3542044 18.9327731,50.7132908 C19.4971821,54.3080386 20.0503289,57.9040813 20.5796518,61.323602" id="Fill-23" sketch:type="MSShapeGroup"></path>
                <path d="M19.0501598,149.014906 C22.3911316,149.478438 25.7321035,149.941971 29.0730753,150.405071 C29.6188583,150.481032 30.0975014,150.689492 30.0398909,151.323935 C29.9705851,152.083109 29.3892829,151.907882 28.8933134,151.831922 C25.5575395,151.320914 22.2195998,150.823718 18.8885907,150.285088 C18.4536969,150.214738 17.7285852,150.246676 17.8459719,149.507355 C17.9477647,148.869027 18.5342649,148.887586 19.0501598,149.014906" id="Fill-17" sketch:type="MSShapeGroup"></path>
                <path d="M123.957888,20.7740345 C123.300349,20.6864209 122.752834,20.8353208 122.677464,20.2345418 C122.622885,19.800358 123.043052,19.655774 123.384382,19.5638444 C126.854869,18.6285798 130.327955,17.7032419 133.801475,16.7809252 C134.251096,16.6618052 134.667797,16.6842481 134.860554,17.2120877 C135.03815,17.6993576 134.688589,17.8495523 134.339894,17.9453663 C130.806165,18.9142952 127.268972,19.8732974 123.957888,20.7740345" id="Fill-21" sketch:type="MSShapeGroup"></path>
                <path d="M32.5500597,44.6985943 C32.9914509,41.1590905 33.3847612,37.9605461 33.792799,34.763728 C33.8647037,34.2026556 33.9041214,33.464198 34.7011379,33.5656226 C35.7407246,33.6985536 35.2898039,34.541457 35.2118349,35.1016663 C34.7773742,38.2238185 34.3156245,41.342518 33.8231203,44.4556068 C33.7460176,44.9433082 34.0453319,45.7970015 33.2292563,45.8112441 C32.2065629,45.8289395 32.5595892,44.946761 32.5500597,44.6985943" id="Fill-33" sketch:type="MSShapeGroup"></path>
                <path d="M165.999641,153.774095 C166.980318,154.644189 166.74078,155.706774 166.859033,156.639449 C167.228952,159.55012 167.567684,162.464676 167.889523,165.381389 C167.941502,165.853553 168.012974,166.48886 167.298258,166.539356 C166.778032,166.576042 166.567948,166.044749 166.52983,165.651999 C166.168141,161.957121 165.841537,158.25879 165.538324,154.558734 C165.520998,154.346821 165.793456,154.110739 165.999641,153.774095" id="Fill-28" sketch:type="MSShapeGroup"></path>
                <path d="M137.909142,171.679211 C137.004701,175.22001 136.102427,178.762966 135.190622,182.303765 C135.070637,182.770318 134.755729,183.084519 134.253695,183.005969 C133.617381,182.906702 133.755993,182.369367 133.849555,181.991722 C134.712412,178.510484 135.59996,175.035288 136.491405,171.560954 C136.615289,171.078432 136.988241,170.866519 137.469916,170.906658 C137.956789,170.947227 138.02956,171.27006 137.909142,171.679211" id="Fill-29" sketch:type="MSShapeGroup"></path>
                <path d="M173.946415,46.26226 C176.201019,46.9942438 178.799986,47.8285153 181.391156,48.6843665 C182.277836,48.977419 183.144592,49.3300314 184.023909,49.6459584 C184.446241,49.7978795 184.940045,49.9847598 184.785839,50.505694 C184.589617,51.1712122 184.039936,50.9843319 183.537469,50.8185997 C181.49035,50.1435865 179.438465,49.483679 177.388747,48.816866 C176.090563,48.3943353 174.794545,47.9661938 173.495494,47.5475475 C173.035911,47.3999423 172.714505,47.1254484 172.785977,46.6222096 C172.848785,46.1806887 173.194881,46.0887592 173.946415,46.26226" id="Fill-30" sketch:type="MSShapeGroup"></path>
                <path d="M152.766135,172.188492 C152.35983,175.50702 151.980814,178.640394 151.587071,181.772041 C151.527728,182.2455 151.591402,182.939503 150.903542,182.916197 C150.039386,182.886417 150.214816,182.12379 150.271127,181.587319 C150.599463,178.449629 150.930398,175.311076 151.335837,172.18245 C151.415539,171.568292 151.198092,170.425862 152.244176,170.557498 C153.307587,170.691292 152.523565,171.766825 152.766135,172.188492" id="Fill-31" sketch:type="MSShapeGroup"></path>
                <path d="M150.064942,50.9165716 C146.594022,50.4797983 143.382999,50.0827317 140.174141,49.6653801 C139.541293,49.5829456 138.699228,49.4789314 138.856898,48.6343016 C138.996376,47.8885069 139.777366,48.1712011 140.326181,48.2501828 C143.530274,48.7111254 146.735233,49.1681836 149.934128,49.6606326 C150.44829,49.7400459 151.322409,49.6373265 151.235777,50.4167856 C151.153043,51.1591275 150.351695,50.9139821 150.064942,50.9165716" id="Fill-34" sketch:type="MSShapeGroup"></path>
                <path d="M22.4764644,77.2869757 C22.4535068,77.8830072 22.5626634,78.4035098 21.9804949,78.493713 C21.4442414,78.5774423 21.2618806,78.1277211 21.1228358,77.7073484 C20.0208739,74.3763046 18.9271421,71.0422396 17.8130516,67.7155117 C17.6588463,67.2554323 17.668809,66.8415335 18.0404612,66.5450283 C18.4658254,66.2057953 18.7330859,66.5989775 18.8418093,66.905841 C20.0880139,70.4129753 21.306063,73.9300362 22.4764644,77.2869757" id="Fill-44" sketch:type="MSShapeGroup"></path>
                <path d="M166.460958,50.9174348 C163.119986,50.0810053 159.776848,49.2540709 156.441508,48.3973564 C155.986255,48.2803944 155.325251,48.1707695 155.469494,47.4905771 C155.6211,46.7758571 156.25005,47.00676 156.710501,47.1202693 C160.053638,47.9463405 163.392877,48.7866544 166.727785,49.6455268 C167.173508,49.7603308 167.918545,49.7676679 167.758275,50.4543343 C167.627461,51.0136803 166.98465,50.9580047 166.460958,50.9174348" id="Fill-46" sketch:type="MSShapeGroup"></path>
                <path d="M184.843017,165.446128 C184.750753,165.892828 184.924451,166.554462 184.18028,166.563957 C183.600711,166.571294 183.631898,166.019285 183.549164,165.611429 C182.866936,162.243699 182.16868,158.878991 181.515906,155.505651 C181.434039,155.082689 181.105269,154.411128 181.802659,154.232448 C182.369233,154.087433 182.754314,154.611388 182.853508,155.10729 C183.540501,158.544506 184.183312,161.990354 184.843017,165.446128" id="Fill-52" sketch:type="MSShapeGroup"></path>
                <path d="M40.6415097,150.179347 C38.9859678,150.179347 37.3299928,150.197906 35.6748841,150.168989 C35.136898,150.159494 34.3563416,150.286814 34.3966256,149.428805 C34.4278132,148.758971 35.1039777,148.828458 35.5895514,148.830616 C38.7572587,148.844427 41.9249661,148.872912 45.0922403,148.90485 C45.7619074,148.911755 46.6199996,149.006706 46.6052721,149.761564 C46.591411,150.499159 45.7068959,150.267393 45.1767067,150.279477 C43.6658407,150.314005 42.1536752,150.291562 40.6415097,150.291562 L40.6415097,150.179347" id="Fill-53" sketch:type="MSShapeGroup"></path>
                <path d="M12.3153705,152.915654 C8.94970851,152.041245 5.53553246,151.161224 2.12742066,150.259624 C1.72934558,150.154315 1.2030548,150.017068 1.28578858,149.460312 C1.40230892,148.6774 2.04728585,148.925566 2.48564492,149.03476 C5.90848419,149.889316 9.32439289,150.771063 12.7364031,151.668347 C13.1245155,151.770635 13.7101494,151.896661 13.6083565,152.431837 C13.4823066,153.095198 12.8559556,152.927308 12.3153705,152.915654" id="Fill-54" sketch:type="MSShapeGroup"></path>
                <path d="M167.810255,132.581095 C167.892988,133.11843 167.693301,133.291931 167.382725,133.368754 C166.978585,133.468884 166.659779,133.318258 166.502108,132.948813 C165.041922,129.52325 163.591265,126.093803 162.143208,122.663061 C161.996366,122.315628 161.926627,121.919856 162.390543,121.783903 C163.118253,121.571128 163.413669,122.075661 163.64671,122.643639 C164.543353,124.830095 165.439131,127.016983 166.349202,129.19826 C166.845605,130.38687 167.370163,131.563827 167.810255,132.581095" id="Fill-60" sketch:type="MSShapeGroup"></path>
                <path d="M133.756859,165.270901 C134.323434,161.787504 134.871816,158.39129 135.432759,154.997233 C135.500333,154.588945 135.544948,154.000251 136.088565,154.060242 C136.753468,154.133613 136.707553,154.776257 136.641712,155.262232 C136.190791,158.598887 135.730774,161.934246 135.228741,165.263132 C135.149039,165.790972 135.064572,166.581221 134.335995,166.547988 C133.414229,166.506123 133.969108,165.658904 133.756859,165.270901" id="Fill-62" sketch:type="MSShapeGroup"></path>
                <path d="M101.545264,0.899554329 C101.249415,1.2275659 101.009877,1.60175805 100.675044,1.84733514 C97.9539255,3.84086863 95.2163471,5.81195922 92.4805014,7.78477619 C92.0871911,8.06833357 91.6410352,8.55603498 91.1966118,7.96863531 C90.7768787,7.41446839 91.2646181,7.09681508 91.691715,6.78261452 C94.4678447,4.74203726 97.2270811,2.67901711 100.008409,0.645776954 C100.338044,0.404947405 100.741317,0.121390032 101.193104,0.325534077 C101.343845,0.393725956 101.404487,0.658293185 101.545264,0.899554329" id="Fill-64" sketch:type="MSShapeGroup"></path>
                <path d="M35.5873856,166.689119 C35.0359714,166.605822 34.4061551,166.912254 34.2614793,166.168617 C34.1163703,165.421959 34.7180312,165.375347 35.2075032,165.306723 C38.6294762,164.827654 42.0518823,164.352469 45.47862,163.907063 C45.9373377,163.847503 46.5784161,163.718457 46.6485883,164.465546 C46.7057655,165.074957 46.1495866,165.084021 45.7493457,165.14617 C42.3330039,165.674873 38.9144962,166.186312 35.5873856,166.689119" id="Fill-68" sketch:type="MSShapeGroup"></path>
                <path d="M164.574108,137.153835 C165.72545,139.398125 165.924704,141.400722 166.379957,143.331674 C166.80792,145.149117 167.330312,146.944117 167.78773,148.754655 C167.887357,149.149132 168.068852,149.63036 167.531732,149.879389 C167.038795,150.107271 166.616029,149.883274 166.522033,149.409815 C165.783061,145.679547 164.384816,142.09861 163.984142,138.295833 C163.960318,138.07011 164.221948,137.814174 164.574108,137.153835" id="Fill-69" sketch:type="MSShapeGroup"></path>
                <path d="M84.6978954,199.651693 C84.5077376,199.585227 84.2461083,199.573574 84.1313206,199.438054 C83.8506322,199.106158 84.0074365,198.74405 84.2686327,198.485094 C86.8693321,195.902866 89.4817269,193.332291 92.0906564,190.758695 C92.4259231,190.428094 92.8140355,190.20496 93.2030142,190.615406 C93.5010291,190.929175 93.3385936,191.288261 93.0670016,191.561028 C90.4801633,194.158794 87.8911592,196.754401 85.2930587,199.340513 C85.1501156,199.48294 84.9205402,199.538615 84.6978954,199.651693" id="Fill-71" sketch:type="MSShapeGroup"></path>
                <path d="M47.5248732,45.4996331 C46.8491419,45.4672636 46.7521138,45.036101 46.9362072,44.4689862 C48.0650252,40.99379 49.1973084,37.5190253 50.3456185,34.0498713 C50.476,33.6558258 50.6488313,33.1646716 51.2431284,33.4128383 C51.6515993,33.583318 51.6606957,33.9903113 51.5545712,34.335155 C50.4816311,37.8254571 49.3935304,41.3114433 48.3023975,44.7961346 C48.1915082,45.1500419 47.9822914,45.4361888 47.5248732,45.4996331" id="Fill-75" sketch:type="MSShapeGroup"></path>
                <path d="M140.009973,19.3497737 C139.487148,19.3968175 138.879856,19.4127864 138.779795,18.792154 C138.677136,18.1533946 139.278797,17.9816202 139.786462,17.9207654 C143.224029,17.5103193 146.663328,17.1145475 150.103927,16.7299971 C150.612458,16.6730266 151.217151,16.686406 151.261767,17.3588298 C151.300318,17.9397555 150.704288,17.9289657 150.308379,17.9829149 C146.87731,18.4511946 143.443208,18.8978946 140.009973,19.3497737" id="Fill-85" sketch:type="MSShapeGroup"></path>
                <path d="M31.3995837,27.8599476 C32.1957339,24.5405568 33.0226385,21.0644974 33.8703348,17.5931854 C33.9738603,17.1697915 34.2064679,16.7463976 34.7557162,16.8741495 C35.2772422,16.9954275 35.3651739,17.4006944 35.2477872,17.8797639 C34.3961924,21.3536654 33.5510951,24.8284301 32.696035,28.3010369 C32.5829799,28.7598215 32.2342852,29.1232238 31.7946267,29.0697061 C31.1392539,28.9898612 31.4710553,28.4188621 31.3995837,27.8599476" id="Fill-89" sketch:type="MSShapeGroup"></path>
                <path d="M91.2052751,40.5669433 C90.8972975,40.5712593 90.6179086,40.5052253 90.519581,40.1716031 C90.3588782,39.6234784 90.7599854,39.4413457 91.1394346,39.2061269 C93.3424921,37.8379733 95.5329879,36.4499665 97.729548,35.0718863 C98.5833086,34.5358463 99.431005,33.9890165 100.303825,33.4857777 C100.597075,33.3165928 100.989952,33.1327337 101.271507,33.5155577 C101.520141,33.8539275 101.425279,34.289406 101.126831,34.4780127 C97.9023793,36.5138424 94.6571361,38.5164394 91.4153582,40.5250787 C91.3586141,40.5604694 91.2754472,40.5544271 91.2052751,40.5669433" id="Fill-101" sketch:type="MSShapeGroup"></path>
                <path d="M0.664202353,51.3123435 C0.654672808,50.4871354 0.599661344,49.9942549 1.18659468,49.9195891 C1.65614135,49.8595975 1.75533525,50.2942128 1.84240063,50.6265403 C2.75030637,54.0879256 3.65084837,57.5519005 4.53709604,61.0188965 C4.67397496,61.5545048 4.55788778,62.0417747 3.93760104,62.2088016 C3.57547833,62.3063419 3.44899528,62.0236477 3.37449156,61.7375008 C2.43799719,58.1393001 1.50323547,54.5402363 0.664202353,51.3123435" id="Fill-103" sketch:type="MSShapeGroup"></path>
                <path d="M49.8050334,61.4051732 C49.41129,61.7987871 49.4905584,62.5488978 48.8044312,62.7223987 C47.7410206,61.3283495 48.7229969,59.9338687 48.8923629,58.580821 C49.2038058,56.092249 49.7508883,53.6308674 50.2607189,51.1707806 C50.3612123,50.684374 50.3109656,49.7767314 51.1053832,49.9394424 C51.7867456,50.0788473 51.613048,50.8889496 51.5225173,51.4314635 C50.9680711,54.7590546 50.3811377,58.0814665 49.8050334,61.4051732" id="Fill-109" sketch:type="MSShapeGroup"></path>
                <path d="M161.538948,17.9531349 C159.743928,17.9531349 157.948475,17.9682407 156.153889,17.9419135 C155.749749,17.9358712 155.188806,17.9035016 155.190538,17.3441556 C155.191838,16.8059576 155.722027,16.72266 156.146092,16.7196388 C159.664226,16.6920168 163.182794,16.6764794 166.700929,16.6816585 C167.186069,16.6825217 167.832779,16.7196388 167.759575,17.4188214 C167.70413,17.9501138 167.11763,17.9004805 166.708726,17.9047964 C164.985611,17.9237865 163.262496,17.9125651 161.538948,17.9125651 L161.538948,17.9531349" id="Fill-108" sketch:type="MSShapeGroup"></path>
                <path d="M140.141221,3.68549473 C139.578978,3.81669935 139.055286,3.66823096 138.98728,3.07435737 C138.923605,2.51932727 139.551689,2.5016319 139.918576,2.42351336 C143.350945,1.69239283 146.791111,0.996663018 150.229111,0.290574948 C150.674833,0.199076983 151.173835,0.171454956 151.265232,0.714400428 C151.351431,1.22238677 150.871055,1.45803719 150.451755,1.546514 C147.017654,2.27331859 143.578788,2.97552231 140.141221,3.68549473" id="Fill-111" sketch:type="MSShapeGroup"></path>
                <path d="M121.243267,154.276471 C122.603826,154.324809 122.502033,155.113764 122.168499,156.052481 C121.044013,159.216929 119.941618,162.389147 118.805003,165.549279 C118.639102,166.010653 118.698879,166.926496 117.810898,166.532019 C117.136466,166.232924 117.440979,165.547553 117.621607,165.012808 C118.830126,161.42626 120.046876,157.842734 121.26146,154.258344 C121.26146,154.258776 121.243267,154.276471 121.243267,154.276471" id="Fill-112" sketch:type="MSShapeGroup"></path>
                <path d="M18.5793137,115.88358 C18.7742362,115.995794 19.0272023,116.132609 19.2719383,116.282804 C22.1533262,118.053635 25.034714,119.824466 27.9130698,121.599613 C28.3133106,121.846485 29.0449198,122.009627 28.6814976,122.640186 C28.3133106,123.278083 27.6930239,122.972082 27.1736637,122.65745 C24.2827463,120.905609 21.3861978,119.1624 18.4974462,117.405812 C18.0725151,117.147719 17.5873747,116.891784 17.8412071,116.234466 C17.9650912,115.914654 18.1968324,115.822725 18.5793137,115.88358" id="Fill-115" sketch:type="MSShapeGroup"></path>
                <path d="M78.081359,192.201946 C78.2000452,192.837252 77.8812386,193.00989 77.5862559,193.22094 C74.7919334,195.219652 72.0114721,197.238218 69.2032885,199.217941 C68.7783574,199.517467 68.1615359,200.067318 67.7353054,199.349145 C67.4641465,198.89295 67.9783088,198.420786 68.3841808,198.132913 C71.2456432,196.10442 74.1170684,194.09017 76.9941246,192.084552 C77.4580402,191.760857 77.9267205,191.643895 78.081359,192.201946" id="Fill-119" sketch:type="MSShapeGroup"></path>
                <path d="M184.759417,132.362277 C184.86814,132.970393 184.728229,133.27812 184.332753,133.412345 C183.882698,133.564698 183.706402,133.263445 183.534004,132.911264 C181.955565,129.686393 180.360665,126.46929 178.785258,123.242692 C178.594667,122.852531 178.473815,122.364829 178.853698,122.047176 C179.181168,121.773545 179.552387,121.963015 179.736047,122.328575 C181.446167,125.728243 183.145025,129.133521 184.759417,132.362277" id="Fill-121" sketch:type="MSShapeGroup"></path>
                <path d="M24.867947,93.3323523 C24.9554455,93.665543 24.8012402,93.7954529 24.5781622,93.8670975 C24.1112145,94.0172923 23.6997114,93.8757294 23.4480448,93.4885894 C22.9823966,92.7712799 22.5786904,92.0138321 22.1385987,91.2788272 C20.7823712,89.0133894 19.4174805,86.7522675 18.0642851,84.4846717 C17.7770992,84.0038758 17.3045204,83.4082759 17.9954125,82.9995562 C18.7768351,82.5373188 18.9254094,83.4233817 19.1818408,83.8381437 C20.9850906,86.7526991 22.7510885,89.6905607 24.5235839,92.6245379 C24.6699924,92.8670938 24.7730847,93.135977 24.867947,93.3323523" id="Fill-125" sketch:type="MSShapeGroup"></path>
                <path d="M62.532607,162.586385 C62.3732037,163.113793 61.9279141,163.212197 61.5285395,163.345128 C58.3374414,164.409871 55.1463434,165.47634 51.9444163,166.509576 C51.5251163,166.644665 50.9121933,166.992962 50.6791526,166.267452 C50.427486,165.485403 51.1014847,165.29507 51.6338397,165.124159 C54.7673274,164.118544 57.9077456,163.13451 61.0472975,162.148317 C61.6407282,161.9623 62.3142938,161.579044 62.532607,162.586385" id="Fill-126" sketch:type="MSShapeGroup"></path>
                <path d="M184.748588,66.903683 C184.563628,67.540716 184.111841,67.6127923 183.583384,67.3495198 C180.36543,65.748737 177.151374,64.1397539 173.946415,62.5139387 C173.563068,62.3197213 173.18102,61.9934361 173.392402,61.4919237 C173.617646,60.9580417 174.09499,61.0741405 174.490032,61.2709475 C177.705821,62.8721618 180.915545,64.4863241 184.123103,66.1052338 C184.437145,66.2636289 184.771978,66.4401509 184.748588,66.903683" id="Fill-127" sketch:type="MSShapeGroup"></path>
                <path d="M102.199771,162.329587 C103.413055,160.400361 104.615944,158.465092 105.845688,156.546656 C106.140671,156.086577 106.453846,155.38351 107.151236,155.766766 C107.958215,156.210013 107.266457,156.773243 107.035149,157.203974 C106.294443,158.582918 105.487031,159.92647 104.704309,161.28556 C103.756119,162.800456 102.826122,164.325278 101.85021,165.82032 C101.605907,166.194512 101.380663,166.913548 100.758644,166.537198 C100.252278,166.230766 100.526469,165.632145 100.742184,165.188466 C101.209565,164.226875 101.712032,163.281683 102.199771,162.329587" id="Fill-129" sketch:type="MSShapeGroup"></path>
                <path d="M128.520807,51.1906339 C126.872196,51.1906339 125.223585,51.2109188 123.57584,51.1781177 C123.107159,51.1686226 122.451353,51.1984026 122.482541,50.4728928 C122.505065,49.9450531 123.017495,49.8595975 123.453255,49.8539868 C126.892988,49.8108273 130.33272,49.777163 133.772886,49.7521305 C134.202582,49.7486778 134.768723,49.793132 134.78475,50.3062975 C134.805542,50.9523939 134.152768,51.0456183 133.678024,51.0572713 C131.959673,51.099136 130.240024,51.0736719 128.520807,51.0736719 L128.520807,51.1906339" id="Fill-134" sketch:type="MSShapeGroup"></path>
                <path d="M123.195957,172.029234 C123.101961,172.374509 123.047383,172.739207 122.903574,173.06506 C121.541282,176.155706 120.169027,179.242468 118.783778,182.322755 C118.62914,182.665873 118.631305,183.302474 117.970735,183.051286 C117.348715,182.814773 117.384668,182.309807 117.607312,181.795347 C119.005557,178.564865 120.404234,175.334382 121.809409,172.106489 C121.991336,171.689138 122.291517,171.372348 122.789652,171.417234 C123.127951,171.447445 123.267862,171.68698 123.195957,172.029234" id="Fill-137" sketch:type="MSShapeGroup"></path>
                <path d="M151.250071,147.459441 C150.96072,148.280333 152.005938,149.582884 150.9252,149.733079 C149.617054,149.91478 150.009065,148.377442 149.886047,147.571224 C149.453319,144.73824 149.126282,141.888423 148.800545,139.040333 C148.744667,138.550042 148.280752,137.736919 149.095095,137.613051 C149.93716,137.484436 149.996503,138.348919 150.084868,138.988974 C150.478611,141.828863 150.866724,144.669185 151.250071,147.459441" id="Fill-140" sketch:type="MSShapeGroup"></path>
                <path d="M62.3814338,178.317561 C61.9989525,178.572202 61.6753811,178.867844 61.2946325,179.027965 C58.1897335,180.336127 55.0766044,181.624004 51.9604432,182.904113 C51.5255495,183.082792 50.9581084,183.510071 50.634537,182.897207 C50.228665,182.128538 51.0009913,181.923099 51.4856986,181.716365 C54.5836671,180.393529 57.6976624,179.107379 60.8021283,177.799648 C61.4471052,177.528175 62.0197442,177.395676 62.3814338,178.317561" id="Fill-141" sketch:type="MSShapeGroup"></path>
                <path d="M76.5583645,26.3053454 C76.4084907,26.2332692 76.1784822,26.1883834 76.0545981,26.0494101 C75.7674123,25.7278724 75.8666062,25.3515223 76.1265028,25.0822075 C78.7189722,22.3968286 81.3235701,19.7235343 83.9299007,17.0515347 C84.2118886,16.761935 84.5627491,16.7015118 84.8971495,16.9535628 C85.2623043,17.2284883 85.2129239,17.5698793 84.9266044,17.8663845 C82.2843215,20.6065759 79.6364075,23.3411566 76.9845951,26.0722846 C76.8914654,26.1680985 76.7402922,26.2086683 76.5583645,26.3053454" id="Fill-145" sketch:type="MSShapeGroup"></path>
                <path d="M68.6705003,17.6018173 C68.5357872,17.8676793 68.4015072,18.2025964 68.2096168,18.5003964 C66.4691754,21.2051971 64.7330656,23.9134505 62.9566718,26.5949451 C62.6382983,27.075741 62.2822399,27.9643934 61.5016835,27.3545509 C60.8549739,26.8487225 61.6091075,26.3053454 61.868571,25.8901518 C63.6098787,23.1029166 65.3984011,20.3441667 67.2007845,17.5953434 C67.452018,17.2120877 67.7054173,16.6497205 68.3443299,16.8439379 C68.6319489,16.9315515 68.7502019,17.2228776 68.6705003,17.6018173" id="Fill-146" sketch:type="MSShapeGroup"></path>
                <path d="M107.185889,6.76060322 C106.900869,6.56768062 106.604587,6.46021367 106.459478,6.24916412 C106.193083,5.86159255 106.466841,5.56595054 106.799509,5.39590244 C110.056881,3.72735936 113.32075,2.07090092 116.584186,0.413147694 C116.993523,0.205550896 117.467401,0.0782306146 117.709105,0.564637249 C117.957307,1.0648549 117.465669,1.37862386 117.130402,1.55600907 C114.912184,2.72908203 112.664078,3.84604776 110.43503,4.99969899 C109.354727,5.55904504 108.294781,6.15809775 107.185889,6.76060322" id="Fill-155" sketch:type="MSShapeGroup"></path>
                <path d="M123.483143,36.1918732 C123.207653,36.1961891 122.577403,36.3683952 122.470846,35.6821604 C122.355192,34.9385237 123.052148,34.9954941 123.506101,34.9203967 C126.756109,34.3843568 130.008716,33.8612646 133.263488,33.3558678 C133.885508,33.2591908 134.739702,33.1245334 134.80251,33.9769319 C134.858388,34.7283373 133.982969,34.6113753 133.460577,34.692515 C130.20667,35.198775 126.947566,35.6748233 123.483143,36.1918732" id="Fill-165" sketch:type="MSShapeGroup"></path>
                <path d="M1.16580294,82.9378382 C1.74450622,82.9973982 1.92426809,83.4376243 2.15470981,83.7790153 C4.00127572,86.5192067 5.84827479,89.2593981 7.64459401,92.0319591 C7.91705237,92.4523318 8.52910905,93.056132 7.88673109,93.5451282 C7.2023365,94.0660624 6.85840656,93.2857401 6.5781513,92.8692518 C4.6947667,90.067774 2.84646814,87.2425585 1.00856545,84.4113007 C0.677630348,83.9007248 0.173430789,83.2835451 1.16580294,82.9378382" id="Fill-172" sketch:type="MSShapeGroup"></path>
                <path d="M151.369624,132.439964 C151.39518,132.840051 151.441962,133.202591 150.948158,133.313079 C150.537521,133.40544 150.207452,133.1754 150.091798,132.822788 C148.952152,129.343707 147.828965,125.859016 146.728302,122.367419 C146.607017,121.9833 146.517786,121.452008 147.172292,121.391153 C147.718075,121.340656 147.901736,121.789946 148.036882,122.199529 C148.667998,124.10847 149.279621,126.023453 149.900341,127.934984 C150.388081,129.437363 150.879719,130.938448 151.369624,132.439964" id="Fill-174" sketch:type="MSShapeGroup"></path>
                <path d="M118.025313,199.601196 C117.271613,199.476466 117.32879,198.984017 117.577424,198.490273 C119.21434,195.239074 120.860786,191.992623 122.530622,188.758256 C122.716448,188.398306 123.030923,187.980092 123.554615,188.286523 C123.943594,188.514405 123.855662,188.901545 123.693226,189.226967 C122.03162,192.547653 120.360485,195.864022 118.688916,199.17996 C118.555935,199.444528 118.372275,199.656872 118.025313,199.601196" id="Fill-181" sketch:type="MSShapeGroup"></path>
                <path d="M73.7133622,161.815558 C74.9703958,161.154356 76.2196325,160.478048 77.4887946,159.840583 C77.8751743,159.646797 78.3546837,159.55271 78.5846923,160.070623 C78.7679194,160.483658 78.3967003,160.69255 78.1142793,160.903599 C77.4879283,161.370153 76.8628768,161.838864 76.2352263,162.307575 C73.6947362,163.322685 71.5237326,164.98907 69.1361485,166.270041 C68.7333086,166.48627 68.2542324,167.020152 67.8327666,166.421963 C67.3597547,165.751697 67.962715,165.39261 68.4474223,165.087905 C70.1969601,163.988203 71.9568938,162.905333 73.7133622,161.815558" id="Fill-189" sketch:type="MSShapeGroup"></path>
                <path d="M167.874796,83.429424 C167.564219,84.1268802 167.133224,84.2356419 166.616463,83.8912297 C163.573506,81.8610107 160.53618,79.8230231 157.505351,77.7751087 C157.111608,77.5092467 156.944841,77.068589 157.179181,76.6499427 C157.408323,76.2403598 157.847549,76.4091131 158.130836,76.5968566 C161.241366,78.6551292 164.340634,80.730234 167.430372,82.8195814 C167.640455,82.9615759 167.749612,83.2516072 167.874796,83.429424" id="Fill-195" sketch:type="MSShapeGroup"></path>
                <path d="M37.5444076,76.6331105 C37.3356239,77.4777403 38.2093099,78.8661788 36.3943647,78.9032959 C35.6644882,75.3879613 34.9133868,71.8773743 34.2237943,68.3551342 C34.1016429,67.7310491 33.6359946,66.7319086 34.7054695,66.5791242 C35.615541,66.449646 35.4427097,67.4846088 35.5665938,68.0435232 C36.2024744,70.9118981 36.5529017,73.8450121 37.5444076,76.6331105" id="Fill-201" sketch:type="MSShapeGroup"></path>
                <path d="M139.994379,62.7828219 C140.553157,62.9148897 141.124064,63.008114 141.667681,63.184636 C144.539972,64.1164479 147.408365,65.0612075 150.271127,66.0232309 C150.732011,66.1781732 151.385218,66.3611692 151.25397,66.9731697 C151.072042,67.8177995 150.319641,67.499283 149.832768,67.3421827 C146.615247,66.3063567 143.409422,65.2338452 140.213559,64.1345748 C139.778232,63.9848116 139.195197,63.7815308 139.284861,63.1315499 C139.332509,62.785843 139.712391,62.8138966 139.994379,62.7828219" id="Fill-197" sketch:type="MSShapeGroup"></path>
                <path d="M167.837111,66.9226732 C167.682472,67.661994 167.081244,67.588623 166.659345,67.412101 C163.223078,65.9748924 159.804571,64.4962507 156.394293,62.9986189 C156.198937,62.9127317 156.001849,62.5411291 156.020475,62.3205845 C156.059459,61.8622315 156.526407,61.8026715 156.842615,61.8855376 C157.459003,62.0473854 158.049402,62.3154054 158.6411,62.5622772 C161.285115,63.6654319 163.931297,64.7634075 166.562751,65.8950474 C167.061319,66.1095498 167.68767,66.2403228 167.837111,66.9226732" id="Fill-198" sketch:type="MSShapeGroup"></path>
                <path d="M85.1843353,34.0546188 C84.9941776,34.3109858 84.8495017,34.5613104 84.6537129,34.7620017 C82.256166,37.2173409 79.8521218,39.6662063 77.4472111,42.11464 C77.0625641,42.5069591 76.6748848,43.1750669 76.0684593,42.5384655 C75.5885167,42.0343635 76.1459951,41.6532659 76.4842939,41.2993586 C78.8558511,38.8198501 81.2321731,36.3446575 83.5933345,33.8547907 C83.9862116,33.4404603 84.4089769,33.257896 84.9244386,33.5185789 C85.0600181,33.5867707 85.0938046,33.8560855 85.1843353,34.0546188" id="Fill-213" sketch:type="MSShapeGroup"></path>
                <path d="M84.5978351,183.062076 C84.4592236,183.008127 84.1880647,182.988705 84.0936356,182.849732 C83.7674652,182.369799 84.1629414,182.055167 84.4557583,181.762546 C86.5306001,179.687873 88.6149715,177.623558 90.697177,175.556653 C91.1545952,175.103048 91.6150455,174.652032 92.0728968,174.198858 C92.3873718,173.887679 92.7390986,173.560962 93.1609976,173.956302 C93.4559803,174.232522 93.3923056,174.702097 93.1497354,174.945516 C90.4758317,177.629169 87.7759384,180.287357 85.0738792,182.942956 C84.9876802,183.02798 84.8035867,183.014169 84.5978351,183.062076" id="Fill-210" sketch:type="MSShapeGroup"></path>
                <path d="M117.646297,33.8142209 C117.723833,34.5682159 117.130835,34.6174176 116.678615,34.7753811 C113.497913,35.8845781 110.316344,36.9911856 107.126979,38.074487 C106.613683,38.248851 105.909363,38.5656411 105.710975,37.7365487 C105.550272,37.0667146 106.291844,37.0011122 106.71201,36.8483279 C109.877985,35.6951083 113.056088,34.5738266 116.237224,33.4616084 C116.766114,33.2768861 117.369074,33.0347618 117.646297,33.8142209" id="Fill-219" sketch:type="MSShapeGroup"></path>
                <path d="M112.62336,52.1915008 C110.728714,52.5631034 108.835799,52.9429063 106.938554,53.301561 C106.379343,53.4073016 105.655964,53.5639703 105.554171,52.7776057 C105.468405,52.1151086 106.234234,52.1755318 106.661764,52.0236107 C107.533717,51.7141577 108.43166,51.4772125 109.321806,51.2100557 C111.659144,50.7974516 113.993016,50.3801001 116.329054,49.9765595 C116.776943,49.8993042 117.403294,49.4845421 117.561397,50.2678856 C117.686148,50.8867916 117.106145,51.1056099 116.609742,51.2316354 C115.285136,51.5682788 113.952732,51.8734159 112.62336,52.1915008" id="Fill-220" sketch:type="MSShapeGroup"></path>
                <path d="M11.375844,123.056243 C11.0254167,123.706224 10.4999922,123.591851 9.9784662,123.241397 C7.06935603,121.284981 4.16544379,119.321659 1.27062794,117.344957 C0.851761123,117.05881 0.428562696,116.668649 0.813642944,116.106714 C1.15973869,115.601317 1.59116718,115.937529 1.92903286,116.163253 C4.90181772,118.151607 7.86507303,120.153772 10.8283283,122.156369 C11.1241774,122.356197 11.4286897,122.567247 11.375844,123.056243" id="Fill-218" sketch:type="MSShapeGroup"></path>
                <path d="M133.694917,142.588037 C133.727404,141.378711 133.736934,140.167657 133.802341,138.960057 C133.830496,138.438691 133.575798,137.651895 134.378878,137.564713 C135.165499,137.479257 135.148173,138.232389 135.237837,138.78483 C135.294581,139.136147 135.350459,139.487033 135.406337,139.841804 C134.958881,142.604438 135.265559,145.39081 135.09706,148.159487 C135.058075,148.80731 135.364753,149.881116 134.342926,149.850904 C133.257857,149.818535 133.798009,148.738686 133.769854,148.139202 C133.682355,146.291979 133.711377,144.439145 133.694917,142.588037" id="Fill-224" sketch:type="MSShapeGroup"></path>
                <path d="M85.2133571,0.938397804 C84.9729527,1.24180851 84.7762975,1.54004008 84.5311283,1.79209108 C82.2284437,4.15938513 79.9235933,6.52452121 77.6035823,8.87541467 C77.1665227,9.31866189 76.59475,10.008781 76.0069504,9.32902015 C75.5183446,8.76363178 76.3084305,8.32038457 76.6692537,7.94144488 C78.9459487,5.54954997 81.2512322,3.18527708 83.55435,0.818414624 C83.90651,0.456307111 84.2920234,0.0730514845 84.8559992,0.39717871 C85.0084719,0.484360733 85.0751787,0.719579558 85.2133571,0.938397804" id="Fill-233" sketch:type="MSShapeGroup"></path>
                <path d="M101.533569,17.5314674 C101.208698,17.8236567 100.923678,18.1404468 100.583214,18.3769604 C97.8685928,20.2617322 95.1435761,22.1313982 92.4207252,24.0040853 C91.9403495,24.3342548 91.3248275,24.7831128 90.9072602,24.1771545 C90.4494089,23.5129311 91.2325642,23.1866459 91.664859,22.8875511 C94.4414219,20.9678203 97.2370438,19.0744166 100.031799,17.181013 C100.37313,16.9496785 100.726157,16.5914553 101.180976,16.9138562 C101.333016,17.0217547 101.387594,17.2651738 101.533569,17.5314674" id="Fill-240" sketch:type="MSShapeGroup"></path>
                <path d="M46.483987,28.5988369 C45.8255821,28.4693586 45.9836859,27.9777728 46.1352923,27.6048755 C47.5092794,24.2280827 48.8997267,20.8581953 50.3165967,17.4990979 C50.451743,17.178855 50.5782261,16.5452747 51.1972133,16.9337095 C51.5112551,17.1305165 51.6632947,17.4874448 51.5034582,17.8741532 C50.1112784,21.2444721 48.7152,24.6126331 47.3156564,27.9794992 C47.1675153,28.3364276 46.8742652,28.5271922 46.483987,28.5988369" id="Fill-241" sketch:type="MSShapeGroup"></path>
                <path d="M6.27883696,77.4764455 C6.27580483,77.7595713 6.32215307,78.1238368 5.95483243,78.1631119 C5.71572749,78.1890075 5.34147627,78.0754982 5.22279012,77.8959551 C4.90788197,77.4207699 4.67657393,76.8851615 4.45133014,76.3568902 C3.23934529,73.5152742 2.03385786,70.670637 0.841365256,67.8208207 C0.651207519,67.3672152 0.373984393,66.8113219 1.02285977,66.5100691 C1.59463247,66.2442071 1.76573111,66.7949213 1.92470125,67.1604816 C3.35456615,70.4544083 4.7649388,73.7565353 6.17704409,77.0577992 C6.23292188,77.187709 6.24591671,77.3361774 6.27883696,77.4764455" id="Fill-246" sketch:type="MSShapeGroup"></path>
                <path d="M78.4720704,176.380998 C78.1203435,176.701673 77.8396551,177.033569 77.4905273,177.26404 C74.7304245,179.084504 71.9664233,180.899358 69.1781651,182.676662 C68.7649294,182.939935 68.2156811,183.610201 67.7223105,182.81693 C67.3207702,182.171266 68.0341866,181.930436 68.3924108,181.68788 C71.2499748,179.753907 74.1343948,177.858777 77.0097184,175.95113 C77.3874349,175.700806 77.7924406,175.535937 78.2061094,175.814315 C78.3412557,175.905381 78.3707107,176.152685 78.4720704,176.380998" id="Fill-247" sketch:type="MSShapeGroup"></path>
                <path d="M107.335762,172.459533 C108.158335,172.712016 107.957782,173.225182 107.671029,173.660228 C105.692782,176.659376 103.697209,179.646871 101.68994,182.626166 C101.510178,182.892891 101.290133,183.307221 100.85264,183.079771 C100.528202,182.911018 100.245781,182.584733 100.500047,182.19673 C102.585284,179.015017 104.685683,175.843232 106.800375,172.681804 C106.895671,172.539378 107.178092,172.52082 107.335762,172.459533" id="Fill-248" sketch:type="MSShapeGroup"></path>
                <path d="M35.4223512,56.4237133 C35.4223512,58.0663607 35.4323139,59.7094397 35.4158537,61.3520872 C35.4115221,61.8376306 35.4673999,62.4927906 34.8146261,62.5458767 C34.1427932,62.6011207 34.0903807,61.9658141 34.0830169,61.4664596 C34.0336366,58.0383071 33.9937857,54.6101546 33.9734272,51.182002 C33.970395,50.6848055 34.0760864,50.0361195 34.6534902,50.0093607 C35.4985875,49.9705172 35.3638744,50.7512711 35.3725376,51.2808371 C35.4006931,52.9946976 35.3829335,54.7094212 35.3829335,56.4237133 L35.4223512,56.4237133" id="Fill-254" sketch:type="MSShapeGroup"></path>
                <path d="M116.996122,16.6406571 C117.280276,16.8245162 117.573526,16.9237828 117.719934,17.1279269 C118.02358,17.552184 117.682682,17.7796341 117.340918,17.9324184 C113.922411,19.463283 110.502604,20.9919895 107.075433,22.5038639 C106.740599,22.6514691 106.355519,22.6488796 106.134174,22.2578552 C105.961342,21.9527182 106.077863,21.6570762 106.357251,21.5280295 C109.883183,19.8957403 113.417345,18.2811465 116.996122,16.6406571" id="Fill-252" sketch:type="MSShapeGroup"></path>
                <path d="M108.256663,189.715532 C108.043981,190.112167 107.878513,190.510097 107.636809,190.85494 C105.741296,193.558446 103.838853,196.256773 101.91735,198.94172 C101.643159,199.324976 101.326085,199.936113 100.730922,199.571848 C99.9516647,199.094936 100.588412,198.522211 100.863902,198.122123 C102.778474,195.345678 104.731598,192.59556 106.697283,189.854937 C106.96541,189.481176 107.220108,188.90284 107.874182,189.194166 C108.030986,189.264084 108.109821,189.507072 108.256663,189.715532" id="Fill-256" sketch:type="MSShapeGroup"></path>
                <path d="M68.7003884,34.0481449 C68.5505146,34.3856515 68.4080046,34.795666 68.196622,35.166837 C66.6363756,37.9104812 65.078295,40.6554201 63.4799304,43.377053 C63.1775839,43.8919448 62.817627,44.7421854 62.0591619,44.3274234 C61.3907943,43.9627263 61.9227161,43.2808075 62.1878107,42.8168437 C63.8619785,39.8889089 65.5634355,36.976943 67.2674914,34.0662719 C67.4806066,33.702438 67.7309738,33.297171 68.2360396,33.3476676 C68.559611,33.3800371 68.6743987,33.6722264 68.7003884,34.0481449" id="Fill-263" sketch:type="MSShapeGroup"></path>
                <path d="M174.906733,76.0729013 C175.142806,76.1807998 175.357221,76.241223 175.52702,76.362501 C178.454323,78.4553011 181.378594,80.551554 184.295934,82.6577336 C184.757251,82.9909243 184.990291,83.4907103 184.56666,83.9434526 C184.182879,84.3538987 183.792601,83.9512213 183.445639,83.7034863 C180.693333,81.7388696 177.932797,79.7850428 175.190454,77.8061835 C174.736068,77.4781719 174.21021,77.1074325 174.425058,76.4125659 C174.470973,76.2636659 174.7404,76.183821 174.906733,76.0729013" id="Fill-260" sketch:type="MSShapeGroup"></path>
                <path d="M167.828447,116.355312 C167.790762,116.655702 167.685071,116.915953 167.349371,116.975944 C166.821348,117.070464 166.582243,116.687208 166.345304,116.328553 C164.883385,114.117496 163.424931,111.903418 161.966478,109.689772 C161.454048,108.91247 160.932522,108.14078 160.438718,107.351826 C160.250293,107.051436 160.076163,106.678539 160.425724,106.390666 C160.738466,106.133436 161.18982,106.1671 161.394272,106.472669 C163.544917,109.683729 165.663508,112.91637 167.787297,116.145126 C167.823683,116.20037 167.815453,116.284531 167.828447,116.355312" id="Fill-266" sketch:type="MSShapeGroup"></path>
                <path d="M19.2195258,132.576779 C22.2971357,133.641522 25.69052,134.804668 29.0717758,136.000616 C29.4533907,136.135705 29.903012,136.414514 29.655677,136.956165 C29.4746156,137.3528 29.067011,137.318273 28.7178831,137.202605 C25.314103,136.073555 21.9129217,134.936736 18.51304,133.795169 C18.0772799,133.648859 17.6960981,133.371775 17.8130516,132.866379 C17.9603264,132.231935 18.4783871,132.516356 19.2195258,132.576779" id="Fill-275" sketch:type="MSShapeGroup"></path>
                <path d="M146.795875,111.205962 C146.11278,109.970739 145.397631,108.751486 144.764783,107.491231 C144.542571,107.04971 143.962135,106.429509 144.710638,106.033737 C145.234763,105.756654 145.579992,106.344053 145.878873,106.735941 C146.179054,107.129555 146.460609,107.537411 146.750827,107.942247 C147.754461,109.736384 148.752464,111.530521 149.76173,113.318615 C150.111724,113.938385 150.511965,114.530532 150.846798,115.157638 C151.136583,115.69972 151.742142,116.426525 151.080705,116.858551 C150.326139,117.351431 150.034621,116.404514 149.718847,115.914223 C148.717811,114.361778 147.766156,112.777828 146.795875,111.205962" id="Fill-269" sketch:type="MSShapeGroup"></path>
                <path d="M50.3425864,149.205239 C53.9564497,147.867297 57.8345414,147.788747 61.5385022,146.874631 C62.035338,146.752058 62.6889782,146.719257 62.7782094,147.346795 C62.8691732,147.989007 62.1730833,148.062378 61.7044029,148.159055 C58.3192487,148.858238 54.9284633,149.533251 51.5359453,150.216465 C50.8359569,150.229844 50.4547751,149.87421 50.3425864,149.205239" id="Fill-270" sketch:type="MSShapeGroup"></path>
                <path d="M1.47551316,132.493913 C1.69469269,132.553905 2.05941436,132.606991 2.38385205,132.749848 C5.40471779,134.081316 8.41908612,135.428322 11.4347539,136.771443 C11.8813431,136.970839 12.5111593,137.099886 12.2057807,137.78871 C11.9146965,138.446028 11.3411911,138.151249 10.9019657,137.963506 C7.80053202,136.639375 4.70819469,135.294096 1.61585736,133.948817 C1.13894695,133.741652 0.716181689,133.436515 0.717048011,132.863358 C0.717048011,132.505134 1.02762454,132.436079 1.47551316,132.493913" id="Fill-274" sketch:type="MSShapeGroup"></path>
                <path d="M134.899105,0.71051608 C134.882645,1.12441489 134.626647,1.38725575 134.280118,1.50551255 C130.808331,2.69412291 127.331347,3.86892225 123.852197,5.03638449 C123.528192,5.14514622 123.082036,5.31044679 122.984142,4.79037581 C122.87152,4.1908915 123.307713,3.88100689 123.812346,3.70448487 C126.055687,2.92070985 128.299462,2.13822961 130.5506,1.37646589 C131.6413,1.00745287 132.749759,0.691094342 133.84609,0.337618713 C134.30654,0.189150317 134.696819,0.172318145 134.899105,0.71051608" id="Fill-277" sketch:type="MSShapeGroup"></path>
                <path d="M167.881293,99.873162 C167.748313,100.035441 167.654317,100.248217 167.49448,100.326336 C167.040527,100.547312 166.667142,100.328062 166.343571,100.009977 C165.015066,98.7031102 163.68093,97.4018538 162.363253,96.0841968 C161.197617,94.9180293 160.035879,93.7471143 158.905761,92.5468509 C158.620308,92.2438718 158.347417,91.7712762 158.66449,91.3862942 C159.007121,90.9693742 159.441148,91.195098 159.768185,91.5239727 C162.34636,94.1156957 164.921936,96.7100083 167.492748,99.3090684 C167.638723,99.4566736 167.733152,99.655207 167.881293,99.873162" id="Fill-281" sketch:type="MSShapeGroup"></path>
                <path d="M85.8921206,163.579483 C87.8231529,161.772399 89.7442226,159.954524 91.694314,158.168587 C92.0694315,157.825038 92.4688061,157.038674 93.0821622,157.648516 C93.6950852,158.257496 92.9140957,158.65931 92.5636684,159.029618 C91.1372688,160.53545 89.6731841,162.006323 88.221228,163.491438 C87.3432104,164.330889 86.4677917,165.169045 85.5919399,166.006769 C85.2397799,166.343412 84.8841546,166.910527 84.3487675,166.451311 C83.7198175,165.910955 84.2448088,165.447855 84.6329212,165.017555 C85.0600181,164.54496 85.4728206,164.059416 85.8921206,163.579483" id="Fill-285" sketch:type="MSShapeGroup"></path>
                <path d="M177.921535,106.244787 C178.201357,106.621137 178.507602,107.011298 178.791323,107.416997 C180.63399,110.054469 182.467561,112.698846 184.316293,115.332865 C184.648961,115.806324 185.189979,116.379481 184.628602,116.824886 C183.816425,117.469257 183.566924,116.508959 183.229925,116.044133 C181.300192,113.379902 179.387785,110.702723 177.483176,108.020365 C177.199889,107.621572 176.849894,107.188683 177.162637,106.658686 C177.24667,106.515828 177.494871,106.469216 177.921535,106.244787" id="Fill-294" sketch:type="MSShapeGroup"></path>
                <path d="M140.271602,78.0824037 C140.284597,77.9956533 140.258608,77.9227139 140.193633,77.8644487 C140.258174,76.7492093 140.872397,76.7228821 141.648188,77.1829615 C144.670787,78.9753721 147.682556,80.7859097 150.694759,82.5960156 C151.14568,82.8670568 151.585338,83.2239851 151.217151,83.7949842 C150.811279,84.423817 150.322673,83.9723694 149.917235,83.7358558 C146.697115,81.8601476 143.485658,79.9689019 140.271602,78.0824037" id="Fill-300" sketch:type="MSShapeGroup"></path>
                <path d="M36.4528415,132.573326 C39.3190687,133.22676 42.1917934,133.853435 45.0450257,134.559523 C45.5557227,134.68598 46.6321281,134.48831 46.3891247,135.439112 C46.196368,136.192243 45.284997,135.916455 44.6794377,135.780503 C42.5097336,135.293664 40.3534575,134.74295 38.123544,134.553912 C37.2221357,134.313946 36.3237595,134.081316 35.4275491,133.839624 C34.8951941,133.696334 34.0864822,133.705398 34.1861093,132.950971 C34.2995975,132.088214 35.0827528,132.562105 35.5947493,132.542251 C35.8797693,132.531462 36.166522,132.561673 36.4528415,132.573326" id="Fill-304" sketch:type="MSShapeGroup"></path>
                <path d="M68.755833,0.835678391 C68.5565789,1.23965054 68.4136357,1.65441254 68.1714986,2.00098266 C66.2898467,4.69369872 64.3986652,7.37994086 62.4845261,10.0497824 C62.1891102,10.4623865 61.9391763,11.2815522 61.2218614,10.7778818 C60.7293572,10.4326065 61.0906136,9.83786968 61.3626388,9.43864507 C63.3335219,6.54869048 65.3195657,3.66866255 67.3264013,0.802877234 C67.5494793,0.484360733 67.8587563,0.0665775719 68.3698864,0.333734366 C68.5349208,0.419621607 68.6219862,0.653545649 68.755833,0.835678391" id="Fill-307" sketch:type="MSShapeGroup"></path>
                <path d="M9.92562054,108.076473 C9.84895102,108.2599 9.81949606,108.504614 9.6808845,108.625892 C9.34388514,108.921102 8.97526502,108.749328 8.72403156,108.495119 C6.14542333,105.891311 3.57851046,103.275419 1.01852816,100.652621 C0.719213816,100.346189 0.382214455,99.9439435 0.863023313,99.5628458 C1.29358548,99.2214548 1.68819527,99.5550771 1.99227439,99.8567614 C4.54186082,102.388493 7.08278402,104.929719 9.61634349,107.478283 C9.75885351,107.621141 9.81299865,107.85118 9.92562054,108.076473" id="Fill-311" sketch:type="MSShapeGroup"></path>
                <path d="M144.846217,34.6066278 C143.120936,34.6066278 141.395656,34.6143965 139.670375,34.6014486 C139.232016,34.5984275 138.730415,34.5207405 138.717853,33.9726159 C138.705725,33.4249229 139.199095,33.3066661 139.63962,33.301487 C143.161653,33.2596223 146.68412,33.2268212 150.206153,33.2125786 C150.709919,33.2108522 151.309414,33.2850864 151.239242,33.9903113 C151.18683,34.515993 150.679165,34.5768478 150.237774,34.5785741 C148.440588,34.5863428 146.643403,34.5820269 144.846217,34.5820269 L144.846217,34.6066278" id="Fill-316" sketch:type="MSShapeGroup"></path>
                <path d="M68.9130705,50.2907601 C67.3411287,53.5898659 65.7652885,56.8872454 64.2015769,60.1906672 C63.9260864,60.7724562 63.693912,61.64255 62.9085909,61.2692211 C62.040536,60.8561855 62.8007337,60.1380128 63.0147153,59.6218261 C64.1357364,56.9127095 65.7704865,54.4319062 66.6216481,51.5976272 C67.1921213,50.8220525 67.1942871,49.0589903 68.9130705,50.2907601" id="Fill-319" sketch:type="MSShapeGroup"></path>
                <path d="M34.8219898,82.6430594 C36.5433722,85.9564079 38.282081,89.2611245 39.9692436,92.5917367 C40.2269745,93.0997231 40.8346995,93.874003 39.9276601,94.2425844 C39.2640573,94.5123308 39.013257,93.6759013 38.7646225,93.2080532 C37.2139056,90.2952241 36.0127498,87.1993991 34.1523227,84.4445335 C33.9851225,83.6978756 33.8291845,82.9581231 34.8219898,82.6430594" id="Fill-325" sketch:type="MSShapeGroup"></path>
                <path d="M132.931254,67.4828824 C129.98186,66.8518917 127.025968,66.2476599 124.088702,65.5653095 C123.547684,65.439284 122.46868,65.6114901 122.632415,64.7224061 C122.818674,63.7133389 123.820143,64.2113986 124.448659,64.3240447 C126.495346,64.6908997 128.493518,65.3421753 130.607344,65.3210272 C131.430351,65.5256028 132.271983,65.6688921 133.064234,65.9502915 C133.724372,66.1850787 134.954116,65.9994932 134.780419,67.0560358 C134.636176,67.932172 133.560204,67.2947074 132.931254,67.4828824" id="Fill-328" sketch:type="MSShapeGroup"></path>
                <path d="M27.1060906,108.030724 C27.0060303,108.246952 26.96488,108.476129 26.8280011,108.604312 C26.5100608,108.902112 26.1332107,108.809319 25.8672497,108.540005 C23.1981108,105.833478 20.5432662,103.112708 17.8819242,100.398844 C17.6467177,100.158877 17.5826099,99.8960365 17.8208485,99.6521858 C18.3566688,99.1040612 18.749546,99.5740673 19.0904438,99.9085527 C21.5980136,102.371661 24.0912891,104.849874 26.5815324,107.330678 C26.7790539,107.527485 26.9206976,107.780399 27.1060906,108.030724" id="Fill-343" sketch:type="MSShapeGroup"></path>
                <path d="M146.368779,96.6534695 C145.228698,95.4639959 144.080821,94.2818595 142.95287,93.0815961 C142.523607,92.6245379 141.771639,92.0617391 142.300529,91.4674339 C142.934244,90.7557351 143.395561,91.6819362 143.848214,92.038433 C144.464602,92.5235448 145.025546,93.0781433 145.612479,93.6051198 C147.088259,95.1428899 148.567938,96.6737544 150.033755,98.2171352 C150.583436,98.795903 151.783726,99.5322026 151.149145,100.155425 C150.27979,101.009549 149.646942,99.6448487 149.009329,99.1183038 C148.082364,98.3526557 147.24463,97.4804039 146.368779,96.6534695" id="Fill-335" sketch:type="MSShapeGroup"></path>
                <path d="M184.846049,99.8679829 C184.756818,100.006093 184.688811,100.24088 184.537638,100.32202 C184.068525,100.574071 183.725461,100.271092 183.414884,99.9655232 C181.422776,98.0065172 179.432401,96.0457849 177.446357,94.0807366 C176.88628,93.5265697 176.3314,92.966792 175.797313,92.3884559 C175.550411,92.1208675 175.367617,91.7691182 175.631412,91.4298852 C175.892175,91.0936733 176.32447,91.0936733 176.588265,91.3560826 C179.278196,94.0341244 181.945602,96.7346092 184.613441,99.4337992 C184.708737,99.5300447 184.748154,99.6811026 184.846049,99.8679829" id="Fill-336" sketch:type="MSShapeGroup"></path>
                <path d="M151.486577,160.263977 C151.486577,161.988627 151.503904,163.714141 151.475315,165.438359 C151.467518,165.916997 151.469684,166.55921 150.741973,166.508713 C150.194891,166.470733 150.152874,165.924766 150.154174,165.507415 C150.166735,161.986038 150.196623,158.464661 150.237341,154.943716 C150.242105,154.504784 150.370321,153.962702 150.871922,153.958818 C151.562814,153.953638 151.53899,154.607072 151.545487,155.088731 C151.568878,156.813381 151.554584,158.538895 151.554584,160.263977 L151.486577,160.263977" id="Fill-338" sketch:type="MSShapeGroup"></path>
                <path d="M24.1683918,166.734005 C22.4461431,166.734005 20.7238944,166.744363 19.0020789,166.727531 C18.5208369,166.722784 17.8992507,166.800471 17.9126787,166.048202 C17.9256735,165.29507 18.5567893,165.401242 19.0293681,165.401674 C22.4019607,165.4034 25.7741201,165.421527 29.1467127,165.445697 C29.6387837,165.449149 30.2460756,165.402969 30.2395782,166.133226 C30.2330808,166.890674 29.5807401,166.769396 29.1189904,166.776733 C27.4690796,166.80306 25.8183025,166.787091 24.1683918,166.787091 L24.1683918,166.734005" id="Fill-339" sketch:type="MSShapeGroup"></path>
                <path d="M93.7020158,108.412684 C93.7076469,109.08295 93.2471966,109.371687 92.8937372,109.698403 C90.4715001,111.937082 88.0371345,114.162382 85.597571,116.382502 C85.2402131,116.707924 84.7957898,117.232743 84.323211,116.74202 C83.7380103,116.134767 84.3912173,115.725184 84.7940571,115.352719 C86.6358583,113.649216 88.4009899,111.846448 90.3653756,110.29573 C92.1045176,108.922829 91.8424551,107.993606 90.3272574,106.652212 C88.3442458,104.896055 86.5661193,102.908564 84.7217192,101.000054 C84.4016131,100.66859 83.8103482,100.284903 84.240044,99.7527473 C84.6762373,99.2119597 85.1704741,99.6323325 85.5226342,99.9840817 C88.1116382,102.570194 90.6872143,105.169686 93.2584588,107.773493 C93.4538145,107.971164 93.581597,108.235731 93.7020158,108.412684" id="Fill-380" sketch:type="MSShapeGroup"></path>
                <path d="M117.969868,127.212495 C117.969868,128.864206 117.986328,130.515917 117.960339,132.167196 C117.952109,132.672161 117.85638,133.268193 117.175451,133.238844 C116.467232,133.20777 116.520944,132.58239 116.525709,132.092962 C116.556897,128.860753 116.594149,125.628976 116.655657,122.39763 C116.666053,121.84519 116.633133,121.076521 117.437946,121.113638 C118.263552,121.151618 118.073394,121.939277 118.08249,122.472296 C118.109779,124.051931 118.092453,125.632429 118.092453,127.212495 L117.969868,127.212495" id="Fill-381" sketch:type="MSShapeGroup"></path>
                <path d="M134.948485,132.292358 C134.971443,132.729132 134.996566,133.222875 134.477206,133.358828 C133.645103,133.576351 133.772886,132.835736 133.685821,132.413636 C133.006191,129.1305 132.345187,125.843478 131.706274,122.552573 C131.617043,122.093357 131.393532,121.456755 131.972668,121.214199 C132.576495,120.960853 132.903532,121.469703 133.004458,121.993658 C133.665895,125.423537 134.302642,128.858595 134.948485,132.292358" id="Fill-346" sketch:type="MSShapeGroup"></path>
                <path d="M68.8186414,133.461979 C68.2997143,133.547866 67.8951418,133.528013 67.79075,133.108935 C67.6569032,132.569442 68.1164872,132.340265 68.519327,132.209492 C71.8685289,131.121443 75.2246614,130.053248 78.5816602,128.988937 C78.91736,128.882333 79.3089377,128.781771 79.4783037,129.245735 C79.6602314,129.744658 79.4094311,130.135251 78.9680399,130.276382 C75.5460669,131.370042 72.1141313,132.432195 68.8186414,133.461979" id="Fill-383" sketch:type="MSShapeGroup"></path>
                <path d="M117.599949,83.5101321 C117.406326,84.2101778 116.922918,84.1044373 116.410921,83.9339576 C113.141421,82.8463402 109.869322,81.7673548 106.605453,80.6637685 C106.225571,80.535585 105.678055,80.4259601 105.746061,79.8700668 C105.817966,79.2856883 106.353786,79.2874147 106.754027,79.4134402 C110.176,80.4928572 113.589743,81.5990331 117.00132,82.7116829 C117.354346,82.8269185 117.621174,83.0772431 117.599949,83.5101321" id="Fill-384" sketch:type="MSShapeGroup"></path>
                <path d="M73.8558722,117.104991 C72.1366557,117.104991 70.417006,117.11837 68.6977894,117.095064 C68.2867195,117.089454 67.7604287,117.071758 67.6850587,116.528813 C67.6023249,115.931486 68.1234178,115.839557 68.5388193,115.843873 C72.0513229,115.881422 75.5633934,115.937529 79.0750307,116.014353 C79.5172882,116.023848 79.9526151,116.239645 79.9422193,116.77439 C79.9309571,117.347547 79.4631431,117.413149 79.0174203,117.414876 C77.2969042,117.422213 75.5763882,117.417897 73.8558722,117.417897 L73.8558722,117.104991" id="Fill-385" sketch:type="MSShapeGroup"></path>
                <path d="M59.728755,108.082083 C59.6854389,108.223215 59.685872,108.499866 59.5520252,108.603017 C59.2145927,108.862405 58.8537695,108.69581 58.5973381,108.436854 C56.0291258,105.842541 53.4695766,103.24046 50.9178244,100.629747 C50.6696231,100.375969 50.4435129,100.036305 50.739362,99.6832606 C51.0395427,99.3250374 51.4254892,99.4670319 51.6814875,99.7203777 C54.3246367,102.33886 56.9526253,104.972879 59.5762823,107.610782 C59.6650803,107.700122 59.6655135,107.876644 59.728755,108.082083" id="Fill-386" sketch:type="MSShapeGroup"></path>
                <path d="M116.675583,148.753792 C117.401561,145.33384 118.104148,141.962226 118.84702,138.599244 C118.945347,138.155997 119.073563,137.498679 119.790011,137.711886 C120.302874,137.864671 120.280783,138.385605 120.193284,138.808999 C119.497194,142.182771 118.785944,145.553521 118.070362,148.922977 C117.95774,149.452111 117.724699,149.90658 117.055898,149.757248 C116.393595,149.609643 116.70807,149.094751 116.675583,148.753792" id="Fill-352" sketch:type="MSShapeGroup"></path>
                <path d="M76.7619502,75.9826981 C75.9272487,75.7612903 75.9887576,75.1859752 76.3313881,74.8139411 C78.8541185,72.0763392 81.4179993,69.3758545 83.9879443,66.6827068 C84.2612689,66.3965599 84.6948632,66.4332454 84.9499951,66.7366561 C85.2380473,67.0793419 84.984648,67.4008795 84.7342809,67.6680363 C82.2838884,70.2800443 79.8330627,72.8920522 77.3744401,75.496723 C77.1873145,75.6952564 76.9434447,75.8407036 76.7619502,75.9826981" id="Fill-387" sketch:type="MSShapeGroup"></path>
                <path d="M113.67984,104.833042 C114.180575,104.846422 114.271105,105.215866 114.380695,105.549057 C115.47486,108.881827 116.570758,112.214166 117.648896,115.552115 C117.806133,116.037659 117.891033,116.681166 117.3041,116.848193 C116.660422,117.031188 116.549966,116.375165 116.395761,115.898685 C115.361372,112.696688 114.315288,109.498575 113.288263,106.294852 C113.109367,105.737664 113.021436,105.163212 113.67984,104.833042" id="Fill-388" sketch:type="MSShapeGroup"></path>
                <path d="M50.4868291,72.698698 C50.4868291,70.9796584 50.4721016,69.2601872 50.4976581,67.5411476 C50.5037223,67.1341543 50.529712,66.5864613 51.1430682,66.6412738 C51.570165,66.6796857 51.6269092,67.1250908 51.6342729,67.4777033 C51.7031455,70.9153509 51.7650876,74.3534301 51.8131684,77.7915093 C51.8205322,78.3068327 51.7317341,78.922286 51.0581686,78.8566837 C50.3434527,78.7867654 50.5613328,78.0845617 50.5513701,77.6417461 C50.5132519,75.9947827 50.5362094,74.3465246 50.5362094,72.698698 L50.4868291,72.698698" id="Fill-389" sketch:type="MSShapeGroup"></path>
                <path d="M68.9932053,89.4488679 C68.9932053,91.1704971 69.000569,92.8925578 68.9875742,94.6137554 C68.9845421,94.9667994 68.9373275,95.3871722 68.4877063,95.4342159 C68.013828,95.4834177 67.8769491,95.056571 67.8643874,94.7125905 C67.7348722,91.1282009 67.6257156,87.5433796 67.5304202,83.9581268 C67.5204575,83.5860927 67.7097489,83.2300275 68.1364126,83.193342 C68.7679615,83.1393927 68.8030476,83.6538529 68.8082455,84.0690465 C68.831203,85.8623203 68.817775,87.6555941 68.817775,89.4488679 L68.9932053,89.4488679" id="Fill-390" sketch:type="MSShapeGroup"></path>
                <path d="M93.3910061,141.616087 C93.0635363,142.015312 92.7815484,142.428779 92.4315542,142.773623 C90.2401921,144.932457 88.0319366,147.074459 85.8332107,149.225524 C85.3597656,149.688625 84.750741,150.285088 84.2014927,149.701141 C83.7284807,149.197902 84.4410308,148.68819 84.8300095,148.30666 C87.1261967,146.050718 89.4340792,143.806859 91.7532239,141.574654 C92.0997528,141.241032 92.4675066,140.797353 93.046643,141.052857 C93.1952173,141.118459 93.2554267,141.383027 93.3910061,141.616087" id="Fill-357" sketch:type="MSShapeGroup"></path>
                <path d="M106.637507,139.578531 C106.558238,139.752032 106.446916,140.017031 106.3187,140.273398 C104.875407,143.169826 103.440344,146.070571 101.972795,148.954483 C101.734556,149.422331 101.511911,150.239339 100.787666,149.881116 C100.058222,149.520303 100.585379,148.837521 100.813222,148.373557 C102.270809,145.404621 103.760451,142.450359 105.27175,139.50775 C105.477068,139.108525 105.653798,138.468471 106.363316,138.75246 C106.668261,138.874601 106.702481,139.179307 106.637507,139.578531" id="Fill-358" sketch:type="MSShapeGroup"></path>
                <path d="M111.418306,67.691774 C109.765363,67.691774 108.111987,67.7038586 106.459044,67.6831421 C106.053172,67.6783946 105.497427,67.7521972 105.408195,67.1932827 C105.323729,66.6624219 105.761655,66.4272031 106.225571,66.4215923 C109.746737,66.3797277 113.267904,66.3555584 116.789071,66.3395894 C117.178916,66.3374315 117.53021,66.550639 117.538007,66.9567691 C117.550568,67.6011392 116.975764,67.5105044 116.593282,67.5169784 C114.868435,67.5446004 113.143154,67.529063 111.418306,67.529063 L111.418306,67.691774" id="Fill-391" sketch:type="MSShapeGroup"></path>
                <path d="M129.208667,105.522298 C129.784338,105.54172 129.932046,105.896922 130.088417,106.210691 C131.653429,109.352265 133.211076,112.497292 134.765258,115.644476 C134.966245,116.05147 135.061107,116.546077 134.64354,116.809349 C133.96391,117.238354 133.79541,116.580173 133.58576,116.155915 C132.061899,113.073038 130.546269,109.986277 129.037135,106.896494 C128.78287,106.375991 128.575819,105.836067 129.208667,105.522298" id="Fill-392" sketch:type="MSShapeGroup"></path>
                <path d="M76.8585452,92.6931613 C76.2464885,92.5774941 76.1637547,92.0310959 76.4288493,91.7250956 C78.9208253,88.8502468 81.4565506,86.0125151 84.0074365,83.1894576 C84.2409104,82.9309327 84.7256177,82.8851837 84.9616905,83.232617 C85.0808098,83.4078443 85.0461569,83.8523863 84.9010479,84.0150973 C82.3666221,86.8580081 79.8053404,89.6771812 77.2431923,92.4950596 C77.1548274,92.5917367 76.9958572,92.6249695 76.8585452,92.6931613" id="Fill-393" sketch:type="MSShapeGroup"></path>
                <path d="M84.7849607,133.377818 C84.5025397,133.357964 84.0966677,133.389902 84.1048978,133.038585 C84.1118283,132.729132 84.3050182,132.356666 84.5341604,132.130511 C86.5210706,130.166326 88.5326709,128.226741 90.5416722,126.284568 C91.108247,125.736875 91.6843513,125.198677 92.2660867,124.667384 C92.5463419,124.41188 92.8807423,124.250033 93.2155759,124.549991 C93.5343825,124.835706 93.5313503,125.224572 93.2437313,125.50295 C90.5667955,128.090789 87.8751323,130.663522 85.18087,133.232802 C85.0877404,133.321711 84.9192407,133.331206 84.7849607,133.377818" id="Fill-394" sketch:type="MSShapeGroup"></path>
                <path d="M106.964628,117.608448 C106.705038,117.753587 106.369198,118.011702 106.160157,117.719216 C105.975747,117.461766 105.915692,117.046254 105.977188,116.730044 C106.508469,113.985571 107.076519,111.247139 107.640699,108.508071 C107.799829,107.735633 107.973151,106.965527 108.155656,106.197859 C108.243856,105.828399 108.43713,105.504713 108.915043,105.559069 C109.370152,105.610917 109.606858,105.93119 109.526289,106.323597 C108.774504,109.973283 108.000522,113.619012 107.222138,117.263398 C107.195294,117.389451 107.053551,117.493525 106.964628,117.608448" id="Fill-394" sketch:type="MSShapeGroup"></path>
                <path d="M101.394091,50.5704331 C101.043231,50.8902444 100.77727,51.2497623 100.420345,51.4405269 C97.5069032,52.9981503 94.5804666,54.5311728 91.6479657,56.0538371 C91.2048419,56.2838768 90.5984163,56.5225484 90.272246,56.0417524 C89.8897647,55.478522 90.4424783,55.141447 90.8938322,54.9045018 C93.8817777,53.3360886 96.8653916,51.759475 99.8788936,50.2415583 C100.303391,50.0279192 101.035001,49.4521726 101.394091,50.5704331" id="Fill-395" sketch:type="MSShapeGroup"></path>
                <path d="M76.5969158,59.2925198 C75.7942683,59.0478059 75.917286,58.5613992 76.2993341,58.1544059 C78.7913101,55.4979438 81.3058105,52.8617666 83.8250757,50.2307685 C84.0819402,49.9627485 84.4544588,49.8492392 84.8001214,50.0736682 C85.2025281,50.3347827 85.0968368,50.7275334 84.8451701,50.9908058 C82.2808562,53.6757532 79.699649,56.3455947 77.1141102,59.0102572 C76.9776645,59.1505253 76.7554528,59.2087905 76.5969158,59.2925198" id="Fill-396" sketch:type="MSShapeGroup"></path>
                <path d="M55.3226399,93.7393456 C55.368555,94.3655888 55.451722,94.7781928 54.9886727,94.880049 C54.6118225,94.9629151 54.2492667,94.7738769 54.1219173,94.4014111 C52.9246599,90.892982 51.7373652,87.3806686 50.5743276,83.8610182 C50.4573741,83.5066793 50.6310717,83.145435 51.0599012,83.0491895 C51.419425,82.9684814 51.5974542,83.248586 51.691017,83.5092689 C52.9398206,87.0004342 54.1738966,90.4967786 55.3226399,93.7393456" id="Fill-397" sketch:type="MSShapeGroup"></path>
                <path d="M90.9137576,71.3102596 C90.1921112,71.4034839 89.777576,71.4954135 89.7022059,70.9908799 C89.6090763,70.3693843 90.0487348,70.1216492 90.5581323,69.942106 C92.9262242,69.1061081 95.2908509,68.2619099 97.6572101,67.4220276 C98.5360941,67.109985 99.4141117,66.7949213 100.296461,66.4941002 C100.658584,66.3706642 101.00208,66.3831805 101.228191,66.7625517 C101.497184,67.2144308 101.195703,67.4518076 100.852207,67.5817175 C97.4319663,68.8765 94.0043623,70.1535872 90.9137576,71.3102596" id="Fill-398" sketch:type="MSShapeGroup"></path>
                <path d="M56.9924761,132.532325 C58.6462853,132.532325 60.3005277,132.517219 61.9539037,132.543978 C62.3411498,132.550452 62.9202862,132.439532 62.9644687,133.042469 C63.0047526,133.592752 62.5178795,133.74381 62.0721567,133.742083 C58.6207288,133.729135 55.1693009,133.702808 51.7183062,133.659649 C51.2838455,133.654038 50.7887424,133.529739 50.8268605,132.957877 C50.8662782,132.365729 51.4064301,132.409752 51.8153342,132.405868 C53.5410482,132.388172 55.2667622,132.398099 56.9924761,132.398099 L56.9924761,132.532325" id="Fill-399" sketch:type="MSShapeGroup"></path>
                <path d="M68.6466764,67.6339404 C67.6170524,70.9869955 66.5995569,74.3435034 65.5430769,77.6879267 C65.3997005,78.1419637 65.1198785,78.7168472 64.4692704,78.4263843 C63.9763331,78.2062713 64.1288058,77.6909478 64.253123,77.2878389 C65.2632548,74.0029756 66.277285,70.7189755 67.3173049,67.4431758 C67.4693444,66.9636746 67.7751562,66.4466248 68.4006409,66.6693274 C68.8151761,66.8169326 68.6505749,67.2666537 68.6466764,67.6339404" id="Fill-400" sketch:type="MSShapeGroup"></path>
                <path d="M117.709105,99.6962084 C117.664057,100.443298 117.175018,100.575366 116.825023,100.276703 C113.926309,97.8040996 111.297454,95.0539815 108.719279,92.2568196 C108.466746,91.9827573 108.449853,91.545984 108.84273,91.3362293 C109.311844,91.0859046 109.657073,91.4260008 109.965051,91.7337275 C111.387552,93.1566935 112.803555,94.5861334 114.224324,96.0108258 C115.137428,96.9266686 116.063093,97.8299952 116.964501,98.7570595 C117.258618,99.0600386 117.493391,99.4208513 117.709105,99.6962084" id="Fill-401" sketch:type="MSShapeGroup"></path>
                <path d="M79.0706991,144.433103 C79.0325809,144.978206 78.6319068,145.180624 78.2489924,145.368367 C75.2835713,146.82025 72.3211823,148.279901 69.33367,149.685604 C68.8888135,149.894927 68.21005,150.454704 67.8349324,149.695099 C67.4780077,148.972179 68.2468687,148.707611 68.7281107,148.470666 C71.691366,147.011878 74.667183,145.57769 77.65123,144.160767 C78.1554296,143.921232 78.7484272,143.665728 79.0706991,144.433103" id="Fill-370" sketch:type="MSShapeGroup"></path>
                <path d="M34.9900564,115.930192 C35.1139404,115.974214 35.3261894,116.023416 35.5141813,116.11923 C38.5705663,117.683759 41.6312828,119.240951 44.6686087,120.84087 C45.0428599,121.038109 45.7744691,121.265559 45.360367,121.918561 C45.0186029,122.458917 44.459825,122.148169 44.0149686,121.924603 C40.9490541,120.38338 37.8857385,118.836978 34.8271878,117.281513 C34.4395086,117.084275 34.0626584,116.818844 34.2276928,116.288846 C34.3238545,115.979393 34.5915481,115.880558 34.9900564,115.930192" id="Fill-402" sketch:type="MSShapeGroup"></path>
                <path d="M51.5628013,115.916381 C54.158736,116.80417 56.8070831,117.700159 59.4476334,118.619023 C60.2593774,118.901286 61.0516291,119.241382 61.8490787,119.563783 C62.1990729,119.704914 62.4979541,119.895679 62.3246897,120.354895 C62.1587889,120.793826 61.7888693,120.821017 61.4371425,120.701465 C58.0437582,119.551267 54.6547055,118.387689 51.2686849,117.215911 C50.9095943,117.091612 50.6791526,116.828339 50.7319983,116.401493 C50.7917745,115.918107 51.120977,115.870632 51.5628013,115.916381" id="Fill-403" sketch:type="MSShapeGroup"></path>
                <path d="M105.197679,122.744201 C104.77708,123.873251 104.268549,125.206877 103.784708,126.549135 C103.062195,128.553458 102.368704,130.56814 101.634929,132.568147 C101.501082,132.933276 101.443905,133.521539 100.848308,133.396808 C100.286931,133.278983 100.312055,132.767544 100.451966,132.353645 C101.592479,128.978147 102.749886,125.608259 103.915522,122.241393 C104.060631,121.821884 104.326592,121.440355 104.857214,121.606518 C105.29514,121.743765 105.21977,122.155938 105.197679,122.744201" id="Fill-404" sketch:type="MSShapeGroup"></path>
                <path d="M134.834997,83.2857031 C134.765691,84.0181184 134.344225,84.1670184 133.78718,83.8920929 C130.562296,82.2995104 127.344775,80.6909589 124.13765,79.0629857 C123.782458,78.8825793 123.292119,78.6067907 123.611792,78.0759298 C123.816677,77.7366968 124.23641,77.7436023 124.579474,77.9132188 C127.870199,79.5373077 131.157026,81.1683021 134.436922,82.8131075 C134.608021,82.8989947 134.706781,83.1281712 134.834997,83.2857031" id="Fill-405" sketch:type="MSShapeGroup"></path>
                <path d="M68.2537993,99.4225777 C68.6873935,99.7294412 69.1409133,99.9655232 69.487009,100.309072 C71.7689018,102.57451 74.0352009,104.855054 76.2863393,107.151135 C76.6605905,107.532664 77.2756793,108.011733 76.6341677,108.572806 C76.1342997,109.010442 75.7028713,108.480445 75.3671714,108.142075 C73.0016784,105.75838 70.6465814,103.364327 68.3083776,100.953874 C68.0311544,100.667727 67.6183519,100.367337 67.7760225,99.8705725 C67.8280019,99.7069983 68.0571441,99.5995313 68.2537993,99.4225777" id="Fill-406" sketch:type="MSShapeGroup"></path>
                <path d="M43.3015522,108.082515 C43.2361448,108.236594 43.2040909,108.480013 43.064613,108.603881 C42.8151122,108.82572 42.5218621,108.727748 42.3044152,108.508498 C39.6326774,105.815782 36.9631053,103.12134 34.3017633,100.418697 C34.0786853,100.192542 34.0414335,99.8425188 34.3164908,99.669018 C34.5122796,99.5447189 34.9385102,99.4942223 35.0818865,99.6176583 C37.9559106,102.101483 40.5423158,104.87577 43.1430152,107.63452 C43.2309469,107.728176 43.2387438,107.896929 43.3015522,108.082515" id="Fill-407" sketch:type="MSShapeGroup"></path>
                <path d="M126.29176,91.1774026 C126.597572,91.3849994 126.924175,91.5403733 127.165879,91.7803397 C129.500618,94.094116 131.837955,96.406166 134.126779,98.7648282 C134.45858,99.1066508 135.2478,99.5593931 134.666064,100.149814 C134.111185,100.713476 133.615648,100.052705 133.233167,99.6767867 C130.888899,97.3733686 128.564123,95.0500971 126.241946,92.7242361 C125.943065,92.4251414 125.611264,92.0876347 125.775432,91.6102916 C125.830877,91.4506017 126.071714,91.3543562 126.29176,91.1774026" id="Fill-408" sketch:type="MSShapeGroup"></path>
                <path d="M92.9240584,91.2097722 C93.2238059,91.4238429 93.5430457,91.593891 93.7895144,91.8373101 C96.076172,94.0980004 98.3727923,96.3496272 100.605305,98.6625404 C100.973492,99.0445012 101.828119,99.6008261 101.149355,100.23009 C100.644722,100.69837 100.103704,100.027673 99.7181908,99.6487331 C97.4250358,97.3949483 95.1535388,95.1187206 92.8842076,92.8411981 C92.5342134,92.4898805 92.1370047,92.1100776 92.35835,91.5446892 C92.4150941,91.3996736 92.6914509,91.3405452 92.9240584,91.2097722" id="Fill-409" sketch:type="MSShapeGroup"></path>
                <path d="M94.8962411,84.4000793 C93.2484961,84.4000793 91.6007512,84.4169114 89.9538725,84.3884262 C89.5354389,84.3810891 89.0321057,84.2826857 89.1048767,83.6836329 C89.1529576,83.2835451 89.5090161,83.101844 89.8884652,83.0927805 C93.3983699,83.0055985 96.9082745,82.9261852 100.418179,82.8610144 C100.798928,82.8536773 101.138959,83.0431472 101.144157,83.4790573 C101.150655,84.0405613 100.729189,84.185577 100.270038,84.1885981 C98.4789168,84.2006828 96.6873624,84.1937773 94.8962411,84.1937773 L94.8962411,84.4000793" id="Fill-410" sketch:type="MSShapeGroup"></path>
            </g>
        </g>
    </g>
</svg>