<?xml version="1.0" encoding="UTF-8"?>
<svg width="12px" height="12px" viewBox="0 0 12 12" version="1.1" xmlns="http://www.w3.org/2000/svg" xmlns:xlink="http://www.w3.org/1999/xlink">
    <!-- Generator: Sketch 48.2 (47327) - http://www.bohemiancoding.com/sketch -->
    <title>icon-star--filled</title>
    <desc>Created with Sketch.</desc>
    <defs></defs>
    <g id="Page-1" stroke="none" stroke-width="1" fill="none" fill-rule="evenodd">
        <path d="M6,9.95015528 L3.19293447,11.5018629 C2.95125903,11.6354578 2.64704232,11.5478413 2.51344743,11.3061658 C2.459189,11.2080114 2.43950596,11.0944652 2.45756159,10.9837753 L3,7.65835921 L0.679538865,5.28006671 C0.486694574,5.08241629 0.490590716,4.76585777 0.688241142,4.57301348 C0.762981114,4.50009091 0.858676515,4.45239804 0.961899752,4.43662693 L4.14589803,3.95015528 L5.54737921,0.964306402 C5.66471135,0.714330844 5.96247308,0.606802108 6.21244863,0.724134248 C6.31807832,0.773714126 6.40304091,0.858676713 6.45262079,0.964306402 L7.85410197,3.95015528 L11.0381002,4.43662693 C11.3110749,4.47833374 11.4985545,4.73343346 11.4568477,5.0064081 C11.4410766,5.10963134 11.3933837,5.20532674 11.3204611,5.28006671 L9,7.65835921 L9.54243841,10.9837753 C9.5868949,11.2563156 9.40199642,11.5132923 9.12945609,11.5577488 C9.01876615,11.5758044 8.90521996,11.5561214 8.80706553,11.5018629 L6,9.95015528 Z" id="icon-star--filled" fill="#FFDA08"></path>
    </g>
</svg>