<?xml version="1.0" encoding="UTF-8"?>
<svg width="12px" height="12px" viewBox="0 0 12 12" version="1.1" xmlns="http://www.w3.org/2000/svg" xmlns:xlink="http://www.w3.org/1999/xlink">
    <!-- Generator: Sketch 48.2 (47327) - http://www.bohemiancoding.com/sketch -->
    <title>heart</title>
    <desc>Created with Sketch.</desc>
    <defs></defs>
    <g id="__icons" stroke="none" stroke-width="1" fill="none" fill-rule="evenodd">
        <path d="M1.5,10.5 L8,10.5 C9.38071187,10.5 10.5,9.38071187 10.5,8 C10.5,6.61928813 9.38071187,5.5 8,5.5 L6.5,5.5 L6.5,4 C6.5,2.61928813 5.38071187,1.5 4,1.5 C2.61928813,1.5 1.5,2.61928813 1.5,4 L1.5,10.5 Z M8,12 L0,12 L0,4 C0,1.790861 1.790861,0 4,0 C6.209139,0 8,1.790861 8,4 C10.209139,4 12,5.790861 12,8 C12,10.209139 10.209139,12 8,12 Z" id="Combined-Shape" fill="#FF433E" fill-rule="nonzero"></path>
    </g>
</svg>
